<?xml version="1.0" encoding="utf-8"?>
<!-- Generator: Adobe Illustrator 13.0.0, SVG Export Plug-In . SVG Version: 6.00 Build 14948)  -->
<!DOCTYPE svg PUBLIC "-//W3C//DTD SVG 1.1//EN" "http://www.w3.org/Graphics/SVG/1.1/DTD/svg11.dtd">
<svg version="1.1" id="Layer_1" xmlns="http://www.w3.org/2000/svg" xmlns:xlink="http://www.w3.org/1999/xlink" x="0px" y="0px"
	 width="100px" height="100px" viewBox="0 0 100 100" enable-background="new 0 0 100 100" xml:space="preserve">
<g id="cloud">
	<path fill="#FFFFFF" d="M66.908,49.172c-0.074,0-0.133,0.021-0.201,0.021c0.23-0.987,0.373-2.017,0.373-3.083
		c0-6.936-5.274-12.559-11.77-12.559c-4.531,0-8.463,2.74-10.428,6.75c-0.527-0.099-1.061-0.174-1.617-0.174
		c-4.928,0-8.932,4.006-9.431,9.12c-0.247-0.021-0.485-0.079-0.739-0.079c-4.473,0-8.096,3.867-8.096,8.64
		c0,4.771,3.623,8.641,8.096,8.641c3.723,0,29.428,0,33.813,0c4.469,0,8.092-3.867,8.092-8.641
		C75.002,53.039,71.377,49.172,66.908,49.172z"/>
</g>
</svg>
