<?xml version="1.0" encoding="utf-8"?>
<!-- Generator: Adobe Illustrator 13.0.0, SVG Export Plug-In . SVG Version: 6.00 Build 14948)  -->
<!DOCTYPE svg PUBLIC "-//W3C//DTD SVG 1.1//EN" "http://www.w3.org/Graphics/SVG/1.1/DTD/svg11.dtd">
<svg version="1.1" xmlns="http://www.w3.org/2000/svg" xmlns:xlink="http://www.w3.org/1999/xlink" x="0px" y="0px" width="500px"
	 height="504.347px" viewBox="0 0 500 504.347" enable-background="new 0 0 500 504.347" xml:space="preserve">
<g id="Layer_2" display="none">
	<rect x="-255.714" y="-305.553" display="inline" width="1004.286" height="1007.143"/>
</g>
<g id="guides">
</g>
<g id="guide" display="none">
	<path display="inline" fill="#A200BF" d="M274.143,389.21c0.186-0.686-0.894-1.138-1.233-0.51
		c-11.512,20.449-27.018,19.293-33.16,34.265c-3.799,9.268,0.889,19.964,10.085,23.724c9.202,3.778,20.044-0.55,23.842-9.797
		C279.825,421.907,267.964,411.857,274.143,389.21z M292.833,311.277c0.186-0.685-0.883-1.118-1.231-0.511
		c-11.513,20.475-27.019,19.299-33.157,34.284c-3.799,9.249,0.883,19.945,10.093,23.725c9.189,3.764,20.032-0.55,23.821-9.812
		C298.519,343.972,286.666,333.927,292.833,311.277z M238.496,327.928c0.271-0.995-1.297-1.646-1.807-0.744
		c-16.836,29.933-39.497,28.231-48.493,50.136c-5.547,13.536,1.312,29.168,14.763,34.69c13.446,5.505,29.3-0.801,34.847-14.34
		C246.795,375.75,229.47,361.056,238.496,327.928z M354.146,327.928c0.261-0.995-1.313-1.646-1.817-0.744
		c-16.835,29.933-39.491,28.231-48.488,50.136c-5.557,13.536,1.303,29.168,14.759,34.69c13.455,5.505,29.299-0.801,34.847-14.34
		C362.442,375.75,345.11,361.056,354.146,327.928z M229.626,113.854c0.442,0.077,0.884,0.122,1.316,0.122
		c3.575,0,6.757-2.56,7.393-6.213l4.944-27.858c0.72-4.075-2.02-7.991-6.101-8.709c-4.1-0.714-7.991,2-8.729,6.106l-4.921,27.848
		C222.816,109.234,225.526,113.14,229.626,113.854z M285.5,148.808c1.477,0,2.982-0.433,4.293-1.355l23.171-16.18
		c3.41-2.399,4.245-7.062,1.866-10.472c-2.371-3.42-7.073-4.25-10.484-1.861l-23.188,16.19c-3.382,2.37-4.227,7.043-1.848,10.453
		C280.779,147.691,283.12,148.808,285.5,148.808z M161.564,124.691c1.47,2.084,3.807,3.21,6.173,3.21
		c1.487,0,2.988-0.437,4.304-1.359c3.409-2.38,4.244-7.054,1.869-10.463l-16.176-23.185c-2.379-3.406-7.067-4.241-10.478-1.851
		c-3.409,2.381-4.25,7.053-1.875,10.463L161.564,124.691z M132.918,182.441c3.571,0,6.743-2.565,7.379-6.198
		c0.738-4.104-1.997-8.004-6.082-8.739l-27.833-4.925c-4.085-0.733-7.996,1.997-8.714,6.082c-0.738,4.105,2.001,8,6.086,8.738
		l27.829,4.926C132.03,182.403,132.477,182.441,132.918,182.441z M359.342,230.745c-0.329,0-0.63,0.096-0.94,0.096
		c1.087-4.327,1.739-8.815,1.739-13.479c0-30.305-24.58-54.875-54.891-54.875c-12.056,0-23.122,3.993-32.177,10.584
		c-6.125-20.956-23.597-37.718-46.555-41.809c-3.518-0.646-7.04-0.942-10.454-0.923c-28.246,0-53.238,20.197-58.358,48.988
		c-0.631,3.469-0.903,6.966-0.903,10.424c-0.017,18.954,9.11,36.402,23.782,47.404c-10.074,6.781-16.7,18.283-16.7,31.341
		c0,20.862,16.891,37.771,37.753,37.771h157.704c20.85,0,37.754-16.908,37.754-37.771
		C397.096,247.647,380.191,230.745,359.342,230.745z M256.617,191.972c-2.458-0.408-4.944-0.743-7.529-0.743
		c-23.003,0-41.67,17.496-43.993,39.865c-1.146-0.097-2.263-0.35-3.458-0.35c-0.625,0-1.235,0.063-1.854,0.093
		c-16.766-6.64-27.939-23.001-27.957-41.086c0-2.608,0.229-5.202,0.695-7.748c3.789-21.533,22.519-36.616,43.542-36.616
		c2.594,0,5.183,0.204,7.753,0.686c20.296,3.584,34.85,20.406,36.463,39.923C258.938,187.906,257.706,189.893,256.617,191.972z
		 M142.532,231.939l-23.18,16.18c-3.416,2.391-4.236,7.083-1.851,10.503c1.462,2.083,3.793,3.201,6.168,3.201
		c1.487,0,2.987-0.429,4.304-1.352l23.176-16.199c3.409-2.38,4.235-7.082,1.855-10.501
		C150.624,230.38,145.922,229.559,142.532,231.939z"/>
</g>
<g id="sun">
	<g>
		<path fill="#FFFFFF" d="M231.785,375.379c-60.932-9.546-104.446-62.02-104.446-121.871l0,0c0-6.34,0.485-12.771,1.503-19.21l0,0
			c9.556-60.931,62.03-104.46,121.886-104.464l0,0c6.335,0,12.757,0.487,19.202,1.5l0,0
			c60.921,9.553,104.457,62.027,104.465,121.885l0,0c0,6.348-0.495,12.77-1.501,19.218l0,0h-0.002
			c-9.546,60.94-62.053,104.434-121.905,104.438l0,0C244.636,376.875,238.219,376.383,231.785,375.379L231.785,375.379z
			 M159.81,239.157c-0.759,4.819-1.12,9.615-1.12,14.352l0,0c-0.006,44.55,32.47,83.832,77.93,90.896l0,0
			c4.84,0.759,9.639,1.126,14.368,1.126l0,0c44.552,0,83.879-32.479,90.931-77.929l0,0c0.762-4.853,1.124-9.654,1.124-14.383l0,0
			c0.006-44.536-32.5-83.847-77.963-90.916l0,0c-4.833-0.761-9.625-1.122-14.351-1.122l0,0c-0.008,0-0.006,0-0.012,0l0,0
			C206.187,161.183,166.885,193.683,159.81,239.157L159.81,239.157z"/>
		<g>
			<path fill="#FFFFFF" d="M74.605,241.703l-58.114-9.093c-8.555-1.336-14.402-9.357-13.068-17.907l0,0
				c1.343-8.555,9.357-14.398,17.91-13.061l0,0l58.114,9.093c8.558,1.336,14.404,9.354,13.067,17.903l0,0
				c-1.209,7.736-7.877,13.255-15.468,13.255l0,0C76.242,241.893,75.426,241.831,74.605,241.703L74.605,241.703z"/>
			<path fill="#FFFFFF" d="M480.384,305.132l-58.115-9.098c-8.552-1.336-14.398-9.354-13.057-17.907l0,0
				c1.335-8.555,9.354-14.399,17.907-13.063l0,0l58.114,9.097c8.552,1.336,14.4,9.355,13.059,17.907l0,0
				c-1.209,7.734-7.877,13.253-15.468,13.253l0,0C482.021,305.321,481.204,305.26,480.384,305.132L480.384,305.132z"/>
		</g>
		<g>
			<path fill="#FFFFFF" d="M376.593,452.275l-34.693-47.503c-5.104-6.986-3.579-16.793,3.413-21.897l0,0
				c6.988-5.106,16.796-3.577,21.899,3.413l0,0l34.693,47.498c5.103,6.994,3.576,16.796-3.414,21.902l0,0
				c-2.788,2.037-6.023,3.018-9.232,3.018l0,0C384.427,458.706,379.66,456.479,376.593,452.275L376.593,452.275z"/>
			<path fill="#FFFFFF" d="M134.506,120.474L99.829,72.978c-5.103-6.991-3.572-16.796,3.421-21.899l0,0
				c6.986-5.108,16.794-3.575,21.896,3.416l0,0l34.675,47.494c5.108,6.993,3.577,16.798-3.416,21.898l0,0
				c-2.788,2.037-6.025,3.019-9.232,3.019l0,0C142.342,126.905,137.574,124.677,134.506,120.474L134.506,120.474z"/>
		</g>
		<g>
			<path fill="#FFFFFF" d="M212.188,500.811c-8.557-1.34-14.406-9.355-13.072-17.904l0,0l9.074-58.098
				c1.339-8.556,9.355-14.406,17.905-13.072l0,0c8.556,1.34,14.401,9.355,13.068,17.908l0,0l-9.072,58.094
				c-1.211,7.739-7.878,13.261-15.467,13.261l0,0C213.822,501,213.007,500.938,212.188,500.811L212.188,500.811z"/>
			<path fill="#FFFFFF" d="M275.615,95.007c-8.556-1.336-14.404-9.354-13.068-17.906l0,0l9.081-58.103
				c1.336-8.556,9.355-14.405,17.903-13.069l0,0c8.553,1.34,14.406,9.354,13.07,17.909l0,0l-9.083,58.105
				c-1.209,7.732-7.879,13.254-15.467,13.252l0,0C277.246,95.195,276.431,95.135,275.615,95.007L275.615,95.007z"/>
		</g>
		<g>
			<path fill="#FFFFFF" d="M380.355,158.897c-5.104-6.993-3.573-16.796,3.419-21.898l0,0l47.5-34.666
				c6.988-5.103,16.794-3.574,21.898,3.419l0,0c5.104,6.989,3.573,16.797-3.419,21.9l0,0l-47.501,34.665
				c-2.783,2.035-6.018,3.015-9.224,3.015l0,0C388.195,165.333,383.427,163.104,380.355,158.897L380.355,158.897z"/>
			<path fill="#FFFFFF" d="M48.555,400.971c-5.1-6.994-3.565-16.796,3.425-21.898l0,0l47.525-34.664
				c6.989-5.099,16.793-3.563,21.896,3.431l0,0c5.103,6.99,3.568,16.794-3.427,21.894l0,0l-47.521,34.668
				c-2.785,2.033-6.017,3.01-9.22,3.01l0,0C56.395,407.411,51.623,405.179,48.555,400.971L48.555,400.971z"/>
		</g>
	</g>
</g>
<g id="cloud" display="none">
	<path display="inline" fill="#FFFFFF" d="M419.071-201.257c-0.725,0-1.312,0.22-1.986,0.22c2.289-9.77,3.683-19.915,3.683-30.451
		c0-68.486-52.094-124.028-116.231-124.028c-44.765,0-83.595,27.067-102.988,66.659c-5.222-0.943-10.484-1.697-15.98-1.697
		c-48.665,0-88.212,39.561-93.137,90.091c-2.436-0.22-4.796-0.793-7.309-0.793c-44.171,0-79.952,38.193-79.952,85.333
		c0,47.111,35.781,85.307,79.952,85.307c36.767,0,290.664,0,333.95,0c44.134,0,79.929-38.195,79.929-85.307
		C499-163.064,463.205-201.257,419.071-201.257z"/>
</g>
<g id="rain" display="none">
	<g display="inline">
		<path fill="#FFFFFF" d="M-262.622,123.174c0.38-1.416-1.845-2.349-2.553-1.054c-23.812,42.281-55.853,39.894-68.568,70.848
			c-7.851,19.164,1.852,41.276,20.873,49.054c19.004,7.812,41.427-1.135,49.285-20.258
			C-250.872,190.776-275.389,169.997-262.622,123.174"/>
		<path fill="#FFFFFF" d="M-223.974-37.966c0.381-1.416-1.83-2.31-2.55-1.052c-23.804,42.331-55.854,39.901-68.549,70.886
			c-7.855,19.122,1.829,41.24,20.851,49.052c19.01,7.784,41.43-1.136,49.264-20.287C-212.222,29.639-236.73,8.867-223.974-37.966"/>
		<path fill="#FFFFFF" d="M-336.333-3.537c0.561-2.058-2.669-3.404-3.733-1.536c-34.812,61.888-81.656,58.375-100.258,103.662
			c-11.466,27.989,2.713,60.309,30.512,71.729c27.801,11.38,60.583-1.655,72.055-29.647C-319.156,95.343-354.99,64.96-336.333-3.537
			"/>
		<path fill="#FFFFFF" d="M-97.204-3.537c0.542-2.058-2.714-3.404-3.756-1.536c-34.812,61.888-81.655,58.375-100.256,103.662
			c-11.489,27.989,2.691,60.309,30.51,71.729c27.823,11.38,60.586-1.655,72.055-29.647C-80.05,95.343-115.887,64.96-97.204-3.537"/>
	</g>
</g>
</svg>
