<?xml version="1.0" encoding="utf-8"?>
<!-- Generator: Adobe Illustrator 13.0.0, SVG Export Plug-In . SVG Version: 6.00 Build 14948)  -->
<!DOCTYPE svg PUBLIC "-//W3C//DTD SVG 1.1//EN" "http://www.w3.org/Graphics/SVG/1.1/DTD/svg11.dtd">
<svg version="1.1" id="Layer_1" xmlns="http://www.w3.org/2000/svg" xmlns:xlink="http://www.w3.org/1999/xlink" x="0px" y="0px"
	 width="99px" height="99px" viewBox="-171.5 349.37 99 99" enable-background="new -171.5 349.37 99 99" xml:space="preserve">
<g id="Layer_2" display="none">
	<rect x="-626.714" y="-55.681" display="inline" width="1004.286" height="1007.144"/>
</g>
<g id="guides">
</g>
<g id="guide" display="none">
	<path display="inline" fill="#A200BF" d="M-96.857,639.081c0.188-0.687-0.894-1.137-1.23-0.51
		c-11.514,20.448-27.018,19.292-33.16,34.267c-3.799,9.268,0.889,19.963,10.085,23.723c9.202,3.779,20.044-0.549,23.843-9.797
		C-91.175,671.776-103.036,661.728-96.857,639.081z M-78.167,561.147c0.187-0.686-0.883-1.117-1.231-0.512
		c-11.513,20.477-27.019,19.299-33.156,34.285c-3.799,9.248,0.885,19.943,10.095,23.725c9.188,3.764,20.03-0.551,23.819-9.812
		C-72.48,593.844-84.334,583.799-78.167,561.147z M-132.504,577.801c0.271-0.996-1.297-1.646-1.807-0.744
		c-16.836,29.933-39.498,28.229-48.494,50.136c-5.547,13.536,1.312,29.167,14.764,34.69c13.445,5.504,29.3-0.801,34.848-14.341
		C-124.205,625.62-141.529,610.928-132.504,577.801z M-16.854,577.801c0.264-0.996-1.312-1.646-1.814-0.744
		c-16.835,29.933-39.491,28.229-48.488,50.136c-5.557,13.536,1.303,29.167,14.759,34.69c13.455,5.504,29.302-0.801,34.85-14.341
		C-8.558,625.62-25.89,610.928-16.854,577.801z M-141.374,363.725c0.442,0.077,0.884,0.122,1.315,0.122
		c3.576,0,6.758-2.561,7.394-6.213l4.944-27.857c0.72-4.076-2.021-7.992-6.102-8.709c-4.1-0.715-7.99,2-8.729,6.105l-4.922,27.848
		C-148.184,359.104-145.475,363.011-141.374,363.725z M-85.5,398.679c1.477,0,2.982-0.434,4.293-1.355l23.171-16.18
		c3.41-2.398,4.245-7.062,1.866-10.472c-2.371-3.42-7.073-4.25-10.484-1.861l-23.188,16.19c-3.383,2.369-4.227,7.043-1.848,10.453
		C-90.221,397.562-87.88,398.679-85.5,398.679z M-209.436,374.562c1.47,2.084,3.807,3.21,6.172,3.21
		c1.488,0,2.988-0.437,4.305-1.358c3.409-2.381,4.244-7.055,1.869-10.463l-16.176-23.186c-2.379-3.406-7.067-4.24-10.479-1.852
		c-3.408,2.382-4.25,7.054-1.875,10.464L-209.436,374.562z M-238.082,432.312c3.571,0,6.743-2.564,7.379-6.197
		c0.738-4.104-1.997-8.004-6.082-8.74l-27.833-4.924c-4.085-0.732-7.996,1.996-8.714,6.082c-0.738,4.104,2.001,8,6.086,8.736
		l27.829,4.928C-238.971,432.274-238.523,432.312-238.082,432.312z M-11.658,480.616c-0.329,0-0.63,0.098-0.938,0.098
		c1.087-4.328,1.736-8.816,1.736-13.479c0-30.307-24.579-54.877-54.891-54.877c-12.057,0-23.122,3.994-32.177,10.586
		c-6.125-20.955-23.597-37.719-46.556-41.81c-3.518-0.646-7.039-0.942-10.453-0.923c-28.246,0-53.238,20.195-58.358,48.986
		c-0.631,3.469-0.903,6.967-0.903,10.424c-0.017,18.955,9.11,36.401,23.782,47.404c-10.073,6.78-16.7,18.282-16.7,31.342
		c0,20.86,16.891,37.771,37.754,37.771h157.703c20.853,0,37.754-16.908,37.754-37.771C26.096,497.517,9.191,480.616-11.658,480.616z
		 M-114.383,441.844c-2.458-0.408-4.944-0.742-7.529-0.742c-23.003,0-41.67,17.496-43.992,39.865
		c-1.146-0.099-2.264-0.351-3.459-0.351c-0.625,0-1.234,0.062-1.854,0.092c-16.766-6.639-27.939-23-27.957-41.086
		c0-2.606,0.229-5.2,0.695-7.748c3.789-21.532,22.519-36.615,43.541-36.615c2.595,0,5.184,0.204,7.754,0.686
		c20.295,3.584,34.85,20.406,36.463,39.924C-112.062,437.776-113.294,439.763-114.383,441.844z M-228.468,481.81l-23.181,16.18
		c-3.416,2.393-4.235,7.084-1.851,10.504c1.462,2.082,3.793,3.201,6.168,3.201c1.487,0,2.987-0.43,4.304-1.354l23.176-16.199
		c3.41-2.379,4.235-7.082,1.855-10.5C-220.376,480.252-225.078,479.429-228.468,481.81z"/>
</g>
<g id="sun" display="none">
	<g display="inline">
		<path fill="#FFFFFF" d="M388.098,526.679c-61.645-9.658-105.669-62.746-105.669-123.299l0,0c0-6.415,0.491-12.92,1.521-19.436l0,0
			c9.668-61.645,62.756-105.684,123.312-105.688l0,0c6.411,0,12.907,0.493,19.43,1.518l0,0
			c61.634,9.665,105.679,62.753,105.687,123.312l0,0c0,6.422-0.5,12.918-1.517,19.441l0,0h-0.005
			c-9.655,61.652-62.777,105.654-123.329,105.658l0,0C401.099,528.19,394.606,527.694,388.098,526.679L388.098,526.679z
			 M315.279,388.86c-0.771,4.877-1.134,9.729-1.134,14.521l0,0c-0.008,45.071,32.851,84.813,78.843,91.961l0,0
			c4.896,0.769,9.751,1.14,14.536,1.14l0,0c45.071,0,84.857-32.859,91.996-78.841l0,0c0.769-4.91,1.136-9.769,1.136-14.551l0,0
			c0.007-45.06-32.88-84.829-78.874-91.979l0,0c-4.895-0.771-9.739-1.136-14.521-1.136l0,0c-0.007,0-0.005,0-0.011,0l0,0
			C362.199,309.975,322.438,342.854,315.279,388.86L315.279,388.86z"/>
		<g>
			<path fill="#FFFFFF" d="M229.078,391.437l-58.795-9.199c-8.654-1.353-14.57-9.467-13.222-18.117l0,0
				c1.357-8.654,9.468-14.565,18.117-13.213l0,0l58.795,9.198c8.658,1.353,14.572,9.464,13.223,18.114l0,0
				c-1.227,7.826-7.973,13.409-15.649,13.409l0,0C230.734,391.63,229.908,391.565,229.078,391.437L229.078,391.437z"/>
			<path fill="#FFFFFF" d="M639.604,455.608l-58.793-9.203c-8.652-1.352-14.569-9.467-13.215-18.117l0,0
				c1.354-8.652,9.469-14.566,18.118-13.217l0,0l58.795,9.201c8.652,1.354,14.568,9.467,13.211,18.117l0,0
				c-1.224,7.824-7.969,13.41-15.646,13.41l0,0C641.262,455.801,640.437,455.737,639.604,455.608L639.604,455.608z"/>
		</g>
		<g>
			<path fill="#FFFFFF" d="M534.601,604.474L499.5,556.415c-5.163-7.067-3.62-16.989,3.454-22.153l0,0
				c7.068-5.166,16.992-3.619,22.155,3.453l0,0l35.101,48.055c5.162,7.076,3.617,16.992-3.456,22.158l0,0
				c-2.819,2.062-6.094,3.053-9.339,3.053l0,0C542.526,610.979,537.703,608.728,534.601,604.474L534.601,604.474z"/>
			<path fill="#FFFFFF" d="M289.68,268.79l-35.083-48.053c-5.163-7.073-3.611-16.993,3.461-22.155l0,0
				c7.068-5.168,16.991-3.617,22.153,3.456l0,0l35.08,48.05c5.168,7.075,3.619,16.994-3.455,22.154l0,0
				c-2.82,2.061-6.096,3.054-9.34,3.054l0,0C297.607,275.296,292.783,273.042,289.68,268.79L289.68,268.79z"/>
		</g>
		<g>
			<path fill="#FFFFFF" d="M368.271,653.577c-8.654-1.354-14.571-9.465-13.225-18.112l0,0l9.18-58.777
				c1.354-8.655,9.468-14.573,18.115-13.225l0,0c8.656,1.354,14.569,9.465,13.221,18.116l0,0l-9.178,58.772
				c-1.226,7.828-7.971,13.416-15.646,13.416l0,0C369.924,653.769,369.1,653.706,368.271,653.577L368.271,653.577z"/>
			<path fill="#FFFFFF" d="M432.439,243.023c-8.653-1.352-14.571-9.463-13.224-18.115l0,0l9.188-58.784
				c1.352-8.656,9.465-14.574,18.112-13.222l0,0c8.651,1.356,14.573,9.463,13.225,18.118l0,0l-9.19,58.786
				c-1.221,7.822-7.97,13.409-15.646,13.407l0,0C434.09,243.215,433.267,243.154,432.439,243.023L432.439,243.023z"/>
		</g>
		<g>
			<path fill="#FFFFFF" d="M538.407,307.663c-5.164-7.075-3.615-16.993,3.459-22.154l0,0l48.056-35.071
				c7.07-5.163,16.991-3.616,22.155,3.459l0,0c5.164,7.071,3.614,16.994-3.459,22.157l0,0l-48.057,35.07
				c-2.817,2.06-6.092,3.05-9.332,3.05l0,0C546.339,314.174,541.514,311.919,538.407,307.663L538.407,307.663z"/>
			<path fill="#FFFFFF" d="M202.723,552.569c-5.157-7.076-3.604-16.992,3.468-22.154l0,0l48.08-35.068
				c7.069-5.158,16.989-3.604,22.151,3.473l0,0c5.163,7.07,3.61,16.988-3.467,22.148l0,0l-48.077,35.072
				c-2.818,2.059-6.088,3.047-9.328,3.047l0,0C210.654,559.086,205.826,556.827,202.723,552.569L202.723,552.569z"/>
		</g>
	</g>
</g>
<g id="cloud">
	<path fill="#FFFFFF" d="M-305.092,282.101c-0.074,0-0.133,0.021-0.201,0.021c0.23-0.987,0.373-2.017,0.373-3.083
		c0-6.935-5.275-12.558-11.77-12.558c-4.531,0-8.463,2.739-10.428,6.749c-0.527-0.098-1.061-0.174-1.617-0.174
		c-4.928,0-8.932,4.007-9.431,9.121c-0.247-0.021-0.485-0.08-0.739-0.08c-4.473,0-8.096,3.867-8.096,8.642
		c0,4.771,3.623,8.639,8.096,8.639c3.723,0,29.428,0,33.812,0c4.469,0,8.093-3.866,8.093-8.639
		C-296.999,285.968-300.624,282.101-305.092,282.101z"/>
</g>
<g id="rain" display="none">
	<g display="inline">
		<path fill="#FFFFFF" d="M-633.622,373.045c0.38-1.416-1.845-2.349-2.553-1.054c-23.812,42.279-55.853,39.894-68.568,70.849
			c-7.851,19.164,1.852,41.274,20.873,49.053c19.004,7.812,41.427-1.135,49.285-20.258
			C-621.872,440.647-646.389,419.868-633.622,373.045"/>
		<path fill="#FFFFFF" d="M-594.974,211.906c0.381-1.416-1.83-2.31-2.55-1.052c-23.804,42.331-55.854,39.901-68.549,70.886
			c-7.855,19.123,1.829,41.24,20.851,49.052c19.01,7.783,41.43-1.137,49.264-20.287C-583.222,279.51-607.73,258.739-594.974,211.906
			"/>
		<path fill="#FFFFFF" d="M-707.333,246.334c0.561-2.058-2.669-3.404-3.733-1.536c-34.812,61.888-81.656,58.375-100.258,103.662
			c-11.466,27.988,2.713,60.309,30.512,71.729c27.801,11.381,60.583-1.654,72.055-29.646
			C-690.156,345.215-725.99,314.831-707.333,246.334"/>
		<path fill="#FFFFFF" d="M-468.204,246.334c0.542-2.058-2.714-3.404-3.756-1.536c-34.812,61.888-81.655,58.375-100.256,103.662
			c-11.489,27.988,2.691,60.309,30.51,71.729c27.823,11.381,60.586-1.654,72.055-29.646
			C-451.05,345.215-486.887,314.831-468.204,246.334"/>
	</g>
</g>
</svg>
