<?xml version="1.0" encoding="utf-8"?>
<!-- Generator: Adobe Illustrator 13.0.0, SVG Export Plug-In . SVG Version: 6.00 Build 14948)  -->
<!DOCTYPE svg PUBLIC "-//W3C//DTD SVG 1.1//EN" "http://www.w3.org/Graphics/SVG/1.1/DTD/svg11.dtd">
<svg version="1.1" id="Layer_1" xmlns="http://www.w3.org/2000/svg" xmlns:xlink="http://www.w3.org/1999/xlink" x="0px" y="0px"
	 width="100px" height="100px" viewBox="0 0 100 100" enable-background="new 0 0 100 100" xml:space="preserve">
<g id="sun">
	<g>
		<path fill="#FFFFFF" d="M48.265,61.088c-5.536-0.868-9.491-5.636-9.491-11.075l0,0c0-0.575,0.044-1.161,0.137-1.744l0,0
			c0.868-5.537,5.636-9.492,11.074-9.492l0,0c0.576,0,1.16,0.043,1.745,0.136l0,0c5.537,0.868,9.492,5.635,9.494,11.074l0,0
			c0,0.577-0.046,1.162-0.138,1.745l0,0l0,0c-0.868,5.539-5.639,9.49-11.077,9.49l0,0C49.432,61.223,48.85,61.178,48.265,61.088
			L48.265,61.088z M41.726,48.709c-0.069,0.437-0.102,0.874-0.102,1.304l0,0c0,4.047,2.95,7.616,7.081,8.26l0,0
			c0.439,0.069,0.877,0.103,1.306,0.103l0,0c4.046,0,7.621-2.951,8.262-7.079l0,0c0.068-0.441,0.102-0.878,0.102-1.308l0,0
			c0-4.047-2.952-7.618-7.084-8.259l0,0c-0.437-0.07-0.873-0.103-1.304-0.103l0,0c0,0,0,0-0.001,0l0,0
			C45.941,41.625,42.368,44.578,41.726,48.709L41.726,48.709z"/>
		<g>
			<path fill="#FFFFFF" d="M33.985,48.938l-5.281-0.826c-0.776-0.122-1.308-0.851-1.187-1.628l0,0
				c0.122-0.777,0.85-1.308,1.626-1.186l0,0l5.281,0.827c0.778,0.12,1.308,0.85,1.188,1.626l0,0
				c-0.11,0.703-0.716,1.205-1.406,1.205l0,0C34.133,48.957,34.058,48.952,33.985,48.938L33.985,48.938z"/>
			<path fill="#FFFFFF" d="M70.855,54.704l-5.281-0.826c-0.778-0.121-1.308-0.852-1.188-1.628l0,0
				c0.121-0.777,0.851-1.309,1.628-1.188l0,0l5.282,0.827c0.776,0.121,1.307,0.851,1.187,1.629l0,0
				c-0.111,0.701-0.716,1.202-1.407,1.202l0,0C71.004,54.721,70.929,54.716,70.855,54.704L70.855,54.704z"/>
		</g>
		<g>
			<path fill="#FFFFFF" d="M61.424,68.072l-3.152-4.315c-0.464-0.634-0.324-1.525,0.311-1.988l0,0
				c0.634-0.464,1.525-0.324,1.989,0.311l0,0l3.153,4.315c0.463,0.634,0.323,1.525-0.311,1.989l0,0
				c-0.253,0.186-0.548,0.274-0.839,0.274l0,0C62.136,68.658,61.703,68.455,61.424,68.072L61.424,68.072z"/>
			<path fill="#FFFFFF" d="M39.426,37.924l-3.151-4.315c-0.464-0.635-0.324-1.526,0.311-1.99l0,0
				c0.635-0.463,1.527-0.324,1.99,0.311l0,0l3.151,4.315c0.464,0.635,0.325,1.526-0.311,1.99l0,0
				c-0.252,0.186-0.547,0.275-0.839,0.275l0,0C40.138,38.51,39.707,38.307,39.426,37.924L39.426,37.924z"/>
		</g>
		<g>
			<path fill="#FFFFFF" d="M46.485,72.482c-0.777-0.12-1.309-0.849-1.187-1.625l0,0l0.824-5.279
				c0.122-0.777,0.851-1.309,1.627-1.189l0,0c0.777,0.12,1.309,0.852,1.188,1.628l0,0l-0.824,5.279
				c-0.109,0.703-0.716,1.204-1.406,1.204l0,0C46.634,72.501,46.559,72.494,46.485,72.482L46.485,72.482z"/>
			<path fill="#FFFFFF" d="M52.246,35.61c-0.777-0.12-1.308-0.849-1.188-1.626l0,0l0.826-5.28c0.121-0.777,0.852-1.309,1.629-1.187
				l0,0c0.776,0.122,1.308,0.85,1.186,1.627l0,0l-0.825,5.279c-0.11,0.702-0.716,1.204-1.405,1.204l0,0
				C52.398,35.628,52.323,35.623,52.246,35.61L52.246,35.61z"/>
		</g>
		<g>
			<path fill="#FFFFFF" d="M61.767,41.416c-0.463-0.634-0.323-1.526,0.31-1.989l0,0l4.317-3.15c0.634-0.464,1.525-0.324,1.988,0.311
				l0,0c0.463,0.635,0.324,1.527-0.311,1.99l0,0l-4.317,3.151c-0.252,0.184-0.548,0.273-0.837,0.273l0,0
				C62.479,42.001,62.043,41.798,61.767,41.416L61.767,41.416z"/>
			<path fill="#FFFFFF" d="M31.618,63.412c-0.464-0.634-0.324-1.526,0.311-1.989l0,0l4.318-3.15
				c0.634-0.463,1.525-0.323,1.989,0.312l0,0c0.464,0.634,0.324,1.525-0.311,1.988l0,0l-4.318,3.15
				c-0.253,0.185-0.547,0.274-0.838,0.274l0,0C32.33,63.998,31.896,63.795,31.618,63.412L31.618,63.412z"/>
		</g>
	</g>
</g>
</svg>
