<?xml version="1.0" encoding="utf-8"?>
<!-- Generator: Adobe Illustrator 13.0.0, SVG Export Plug-In . SVG Version: 6.00 Build 14948)  -->
<!DOCTYPE svg PUBLIC "-//W3C//DTD SVG 1.1//EN" "http://www.w3.org/Graphics/SVG/1.1/DTD/svg11.dtd">
<svg version="1.1" xmlns="http://www.w3.org/2000/svg" xmlns:xlink="http://www.w3.org/1999/xlink" x="0px" y="0px" width="500px"
	 height="331.884px" viewBox="0 0 500 331.884" enable-background="new 0 0 500 331.884" xml:space="preserve">
<g id="Layer_2" display="none">
	<rect x="-255.714" y="-289.61" display="inline" width="1004.286" height="1007.143"/>
</g>
<g id="guides">
</g>
<g id="guide" display="none">
	<path display="inline" fill="#A200BF" d="M274.143,405.153c0.186-0.686-0.894-1.138-1.233-0.51
		c-11.512,20.449-27.018,19.293-33.16,34.265c-3.799,9.268,0.889,19.964,10.085,23.724c9.202,3.778,20.044-0.55,23.842-9.797
		C279.825,437.849,267.964,427.799,274.143,405.153z M292.833,327.219c0.186-0.685-0.883-1.118-1.231-0.511
		c-11.513,20.475-27.019,19.299-33.157,34.284c-3.799,9.249,0.883,19.945,10.093,23.725c9.189,3.764,20.032-0.55,23.821-9.812
		C298.519,359.915,286.666,349.87,292.833,327.219z M238.496,343.871c0.271-0.995-1.297-1.646-1.807-0.744
		c-16.836,29.933-39.497,28.231-48.493,50.136c-5.547,13.536,1.312,29.168,14.763,34.69c13.446,5.505,29.3-0.801,34.847-14.34
		C246.795,391.692,229.47,376.999,238.496,343.871z M354.146,343.871c0.261-0.995-1.313-1.646-1.817-0.744
		c-16.835,29.933-39.491,28.231-48.488,50.136c-5.557,13.536,1.303,29.168,14.759,34.69c13.455,5.505,29.299-0.801,34.847-14.34
		C362.442,391.692,345.11,376.999,354.146,343.871z M229.626,129.796c0.442,0.077,0.884,0.122,1.316,0.122
		c3.575,0,6.757-2.56,7.393-6.213l4.944-27.858c0.72-4.075-2.02-7.991-6.101-8.709c-4.1-0.714-7.991,2-8.729,6.106l-4.921,27.848
		C222.816,125.176,225.526,129.082,229.626,129.796z M285.5,164.75c1.477,0,2.982-0.433,4.293-1.355l23.171-16.18
		c3.41-2.399,4.245-7.062,1.866-10.472c-2.371-3.42-7.073-4.25-10.484-1.861l-23.188,16.19c-3.382,2.37-4.227,7.043-1.848,10.453
		C280.779,163.633,283.12,164.75,285.5,164.75z M161.564,140.633c1.47,2.084,3.807,3.21,6.173,3.21c1.487,0,2.988-0.437,4.304-1.359
		c3.409-2.38,4.244-7.054,1.869-10.463l-16.176-23.185c-2.379-3.406-7.067-4.241-10.478-1.851c-3.409,2.381-4.25,7.053-1.875,10.463
		L161.564,140.633z M132.918,198.383c3.571,0,6.743-2.565,7.379-6.198c0.738-4.104-1.997-8.004-6.082-8.739l-27.833-4.925
		c-4.085-0.733-7.996,1.997-8.714,6.082c-0.738,4.105,2.001,8,6.086,8.738l27.829,4.926
		C132.03,198.345,132.477,198.383,132.918,198.383z M359.342,246.687c-0.329,0-0.63,0.096-0.94,0.096
		c1.087-4.327,1.739-8.815,1.739-13.479c0-30.305-24.58-54.875-54.891-54.875c-12.056,0-23.122,3.993-32.177,10.584
		c-6.125-20.956-23.597-37.718-46.555-41.809c-3.518-0.646-7.04-0.942-10.454-0.923c-28.246,0-53.238,20.197-58.358,48.988
		c-0.631,3.469-0.903,6.966-0.903,10.424c-0.017,18.954,9.11,36.402,23.782,47.404c-10.074,6.781-16.7,18.283-16.7,31.341
		c0,20.862,16.891,37.771,37.753,37.771h157.704c20.85,0,37.754-16.908,37.754-37.771
		C397.096,263.589,380.191,246.687,359.342,246.687z M256.617,207.915c-2.458-0.408-4.944-0.743-7.529-0.743
		c-23.003,0-41.67,17.496-43.993,39.865c-1.146-0.097-2.263-0.35-3.458-0.35c-0.625,0-1.235,0.063-1.854,0.093
		c-16.766-6.64-27.939-23.001-27.957-41.086c0-2.608,0.229-5.202,0.695-7.748c3.789-21.533,22.519-36.616,43.542-36.616
		c2.594,0,5.183,0.204,7.753,0.686c20.296,3.584,34.85,20.406,36.463,39.923C258.938,203.848,257.706,205.835,256.617,207.915z
		 M142.532,247.881l-23.18,16.18c-3.416,2.391-4.236,7.083-1.851,10.503c1.462,2.083,3.793,3.201,6.168,3.201
		c1.487,0,2.987-0.429,4.304-1.352l23.176-16.199c3.409-2.38,4.235-7.082,1.855-10.501
		C150.624,246.323,145.922,245.501,142.532,247.881z"/>
</g>
<g id="sun" display="none">
	<g display="inline">
		<path fill="#FFFFFF" d="M759.098,292.75c-61.645-9.658-105.669-62.746-105.669-123.299l0,0c0-6.414,0.491-12.92,1.521-19.434l0,0
			c9.668-61.645,62.756-105.684,123.312-105.688l0,0c6.411,0,12.907,0.493,19.427,1.518l0,0
			c61.634,9.665,105.679,62.754,105.687,123.312l0,0c0,6.422-0.5,12.918-1.517,19.441l0,0h-0.002
			c-9.658,61.654-62.78,105.656-123.332,105.66l0,0C772.099,294.262,765.606,293.766,759.098,292.75L759.098,292.75z
			 M686.279,154.932c-0.768,4.877-1.133,9.728-1.133,14.52l0,0c-0.006,45.071,32.85,84.814,78.842,91.961l0,0
			c4.896,0.767,9.751,1.138,14.536,1.138l0,0c45.074,0,84.86-32.859,91.996-78.84l0,0c0.769-4.909,1.136-9.767,1.136-14.55l0,0
			c0.007-45.06-32.88-84.829-78.874-91.981l0,0c-4.892-0.77-9.739-1.135-14.521-1.135l0,0c-0.007,0-0.005,0-0.011,0l0,0
			C733.199,76.046,693.438,108.925,686.279,154.932L686.279,154.932z"/>
		<g>
			<path fill="#FFFFFF" d="M600.078,157.508l-58.795-9.199c-8.654-1.353-14.57-9.467-13.221-18.117l0,0
				c1.359-8.655,9.467-14.566,18.119-13.214l0,0l58.795,9.199c8.658,1.352,14.572,9.463,13.22,18.114l0,0
				c-1.224,7.826-7.97,13.409-15.649,13.409l0,0C601.734,157.701,600.908,157.637,600.078,157.508L600.078,157.508z"/>
			<path fill="#FFFFFF" d="M1010.605,221.679l-58.794-9.202c-8.652-1.352-14.569-9.466-13.212-18.118l0,0
				c1.353-8.654,9.466-14.568,18.118-13.216l0,0l58.795,9.202c8.652,1.352,14.568,9.466,13.211,18.117l0,0
				c-1.224,7.824-7.969,13.409-15.648,13.409l0,0C1012.262,221.872,1011.437,221.809,1010.605,221.679L1010.605,221.679z"/>
		</g>
		<g>
			<path fill="#FFFFFF" d="M905.601,370.545L870.5,322.487c-5.163-7.069-3.62-16.991,3.454-22.154l0,0
				c7.069-5.167,16.992-3.62,22.155,3.453l0,0l35.101,48.055c5.162,7.075,3.617,16.991-3.456,22.158l0,0
				c-2.82,2.061-6.094,3.053-9.339,3.053l0,0C913.526,377.051,908.703,374.799,905.601,370.545L905.601,370.545z"/>
			<path fill="#FFFFFF" d="M660.68,34.861l-35.083-48.053c-5.163-7.073-3.614-16.993,3.461-22.155l0,0
				c7.068-5.168,16.991-3.617,22.153,3.456l0,0l35.08,48.05c5.168,7.075,3.619,16.994-3.455,22.154l0,0
				c-2.82,2.061-6.096,3.054-9.34,3.054l0,0C668.607,41.367,663.783,39.113,660.68,34.861L660.68,34.861z"/>
		</g>
		<g>
			<path fill="#FFFFFF" d="M739.271,419.649c-8.657-1.355-14.574-9.465-13.225-18.114l0,0l9.18-58.776
				c1.354-8.657,9.465-14.574,18.115-13.225l0,0c8.656,1.355,14.569,9.465,13.221,18.117l0,0l-9.178,58.773
				c-1.226,7.829-7.971,13.416-15.648,13.416l0,0C740.924,419.84,740.1,419.778,739.271,419.649L739.271,419.649z"/>
			<path fill="#FFFFFF" d="M803.439,9.095c-8.653-1.352-14.571-9.463-13.221-18.115l0,0l9.188-58.784
				c1.352-8.656,9.465-14.574,18.114-13.222l0,0c8.652,1.356,14.574,9.463,13.223,18.118l0,0l-9.19,58.786
				c-1.222,7.822-7.971,13.409-15.648,13.407l0,0C805.09,9.286,804.267,9.225,803.439,9.095L803.439,9.095z"/>
		</g>
		<g>
			<path fill="#FFFFFF" d="M909.407,73.734c-5.164-7.075-3.615-16.993,3.459-22.154l0,0l48.056-35.071
				c7.07-5.163,16.991-3.616,22.155,3.459l0,0c5.164,7.071,3.614,16.994-3.459,22.157l0,0l-48.057,35.07
				c-2.817,2.06-6.089,3.05-9.332,3.05l0,0C917.339,80.245,912.514,77.99,909.407,73.734L909.407,73.734z"/>
			<path fill="#FFFFFF" d="M573.723,318.64c-5.16-7.075-3.607-16.991,3.465-22.153l0,0l48.082-35.07
				c7.07-5.158,16.99-3.606,22.152,3.471l0,0c5.163,7.072,3.61,16.989-3.467,22.15l0,0l-48.077,35.074
				c-2.818,2.056-6.088,3.045-9.328,3.045l0,0C581.654,325.157,576.826,322.898,573.723,318.64L573.723,318.64z"/>
		</g>
	</g>
</g>
<g id="cloud">
	<path fill="#FFFFFF" d="M419.071,158.163c-0.725,0-1.312,0.22-1.986,0.22c2.289-9.77,3.683-19.915,3.683-30.451
		c0-68.486-52.094-124.028-116.231-124.028c-44.765,0-83.595,27.067-102.988,66.659c-5.222-0.943-10.484-1.697-15.98-1.697
		c-48.665,0-88.212,39.561-93.137,90.091c-2.436-0.22-4.796-0.793-7.309-0.793c-44.171,0-79.952,38.193-79.952,85.333
		c0,47.111,35.781,85.307,79.952,85.307c36.767,0,290.664,0,333.95,0c44.134,0,79.929-38.195,79.929-85.307
		C499,196.356,463.205,158.163,419.071,158.163z"/>
</g>
<g id="rain" display="none">
	<g display="inline">
		<path fill="#FFFFFF" d="M-262.622,139.116c0.38-1.416-1.845-2.349-2.553-1.054c-23.812,42.281-55.853,39.894-68.568,70.848
			c-7.851,19.164,1.852,41.276,20.873,49.054c19.004,7.812,41.427-1.135,49.285-20.258
			C-250.872,206.719-275.389,185.939-262.622,139.116"/>
		<path fill="#FFFFFF" d="M-223.974-22.023c0.381-1.416-1.83-2.31-2.55-1.052c-23.804,42.331-55.854,39.901-68.549,70.886
			c-7.855,19.122,1.829,41.24,20.851,49.052c19.01,7.784,41.43-1.136,49.264-20.287C-212.222,45.581-236.73,24.81-223.974-22.023"/>
		<path fill="#FFFFFF" d="M-336.333,12.405c0.561-2.058-2.669-3.404-3.733-1.536c-34.812,61.888-81.656,58.375-100.258,103.662
			c-11.466,27.989,2.713,60.309,30.512,71.729c27.801,11.38,60.583-1.655,72.055-29.647
			C-319.156,111.286-354.99,80.902-336.333,12.405"/>
		<path fill="#FFFFFF" d="M-97.204,12.405c0.542-2.058-2.714-3.404-3.756-1.536c-34.812,61.888-81.655,58.375-100.256,103.662
			c-11.489,27.989,2.691,60.309,30.51,71.729c27.823,11.38,60.586-1.655,72.055-29.647C-80.05,111.286-115.887,80.902-97.204,12.405
			"/>
	</g>
</g>
</svg>
