<?xml version="1.0" encoding="utf-8"?>
<!-- Generator: Adobe Illustrator 13.0.0, SVG Export Plug-In . SVG Version: 6.00 Build 14948)  -->
<!DOCTYPE svg PUBLIC "-//W3C//DTD SVG 1.1//EN" "http://www.w3.org/Graphics/SVG/1.1/DTD/svg11.dtd">
<svg version="1.1" id="icons" xmlns="http://www.w3.org/2000/svg" xmlns:xlink="http://www.w3.org/1999/xlink" x="0px" y="0px"
	 width="26.061px" height="34.447px" viewBox="0 0 26.061 34.447" enable-background="new 0 0 26.061 34.447" xml:space="preserve">
<path fill="#FFFFFF" d="M21.842,8.14c-0.037,0-0.07,0.011-0.105,0.011C21.857,7.636,21.93,7.1,21.93,6.544
	C21.93,2.931,19.184,0,15.797,0c-2.361,0-4.41,1.428-5.434,3.518c-0.275-0.05-0.554-0.091-0.843-0.091
	c-2.569,0-4.655,2.088-4.915,4.755C4.477,8.169,4.352,8.14,4.219,8.14C1.889,8.14,0,10.156,0,12.642
	c0,2.487,1.889,4.502,4.219,4.502h17.623c2.328,0,4.219-2.016,4.219-4.502C26.061,10.156,24.17,8.14,21.842,8.14z M12.858,28.58
	c0.019-0.068-0.089-0.112-0.123-0.05c-1.147,2.04-2.693,1.923-3.306,3.417c-0.379,0.923,0.088,1.989,1.006,2.365
	c0.916,0.376,1.998-0.054,2.376-0.978C13.424,31.84,12.242,30.838,12.858,28.58z M14.723,17.812c0.018-0.068-0.09-0.112-0.123-0.05
	c-1.148,2.04-2.693,1.923-3.307,3.417c-0.379,0.923,0.089,1.989,1.006,2.365s1.998-0.054,2.377-0.978
	C15.287,21.072,14.106,20.07,14.723,17.812z M9.305,20.472c0.027-0.1-0.129-0.164-0.18-0.074c-1.68,2.984-3.938,2.813-4.835,4.998
	c-0.554,1.35,0.13,2.908,1.472,3.458c1.34,0.55,2.921-0.08,3.475-1.429C10.133,25.24,8.404,23.775,9.305,20.472z M20.834,20.472
	c0.025-0.1-0.129-0.164-0.18-0.074c-1.68,2.984-3.939,2.813-4.836,4.998c-0.553,1.35,0.131,2.908,1.471,3.458
	c1.342,0.55,2.922-0.08,3.477-1.429C21.662,25.24,19.934,23.775,20.834,20.472z"/>
</svg>
