<?xml version="1.0" encoding="utf-8"?>
<!-- Generator: Adobe Illustrator 13.0.0, SVG Export Plug-In . SVG Version: 6.00 Build 14948)  -->
<!DOCTYPE svg PUBLIC "-//W3C//DTD SVG 1.1//EN" "http://www.w3.org/Graphics/SVG/1.1/DTD/svg11.dtd">
<svg version="1.1" id="Layer_1" xmlns="http://www.w3.org/2000/svg" xmlns:xlink="http://www.w3.org/1999/xlink" x="0px" y="0px"
	 width="92px" height="92px" viewBox="0 0 92 92" enable-background="new 0 0 92 92" xml:space="preserve">
<path fill="#4B4B4B" d="M43.826,33.104C37.034,21.031,29.773,11.19,29.24,10.469C18.284,15.646,10.108,25.737,7.557,37.9
	C8.588,37.919,24.961,38.116,43.826,33.104 M48.719,46.301c0.514-0.163,1.029-0.318,1.549-0.467
	c-0.986-2.234-2.063-4.47-3.188-6.676c-20.228,6.054-39.642,5.615-40.332,5.598C6.737,45.169,6.717,45.581,6.717,46
	c0,10.102,3.817,19.308,10.078,26.267c-0.011-0.014-0.027-0.034-0.027-0.034S27.522,53.157,48.719,46.301 M21.856,76.969
	l0.006-0.016c-0.291-0.229-0.604-0.438-0.889-0.676C21.494,76.695,21.856,76.969,21.856,76.969 M36.59,7.859
	c-0.035,0.008-0.07,0.017-0.103,0.024c0.06-0.015,0.097-0.021,0.097-0.021L36.59,7.859z M71.946,16.518
	C65.028,10.422,55.948,6.716,46,6.716c-3.191,0-6.287,0.391-9.256,1.107c0.598,0.792,7.971,10.589,14.686,22.918
	C66.243,25.188,71.842,16.679,71.946,16.518 M46,92C20.596,92,0,71.403,0,46C0,20.596,20.596,0,46,0c25.407,0,46,20.596,46,46
	C92,71.403,71.407,92,46,92 M52.684,52.429c-23.057,8.033-30.668,24.193-30.822,24.524c6.664,5.204,15.029,8.331,24.138,8.331
	c5.442,0,10.623-1.107,15.336-3.108c-0.582-3.444-2.867-15.476-8.392-29.835C52.858,52.371,52.772,52.396,52.684,52.429
	 M54.451,36.594c0.918,1.874,1.795,3.777,2.612,5.698c0.291,0.678,0.572,1.355,0.847,2.029c13.569-1.706,26.926,1.189,27.363,1.284
	c-0.093-9.323-3.423-17.869-8.936-24.56C76.258,21.163,69.956,30.263,54.451,36.594 M60.305,50.523
	c5.16,14.177,7.25,25.709,7.646,28.059c8.821-5.956,15.088-15.397,16.834-26.351C84.004,51.979,73.006,48.49,60.305,50.523"/>
</svg>
