<?xml version="1.0" encoding="utf-8"?>
<!-- Generator: Adobe Illustrator 13.0.0, SVG Export Plug-In . SVG Version: 6.00 Build 14948)  -->
<!DOCTYPE svg PUBLIC "-//W3C//DTD SVG 1.1//EN" "http://www.w3.org/Graphics/SVG/1.1/DTD/svg11.dtd">
<svg version="1.1" xmlns="http://www.w3.org/2000/svg" xmlns:xlink="http://www.w3.org/1999/xlink" x="0px" y="0px" width="801px"
	 height="583.287px" viewBox="0 0 801 583.287" enable-background="new 0 0 801 583.287" xml:space="preserve">
<g id="Layer_2">
</g>
<g id="icons">
	<g>
		<circle fill="none" stroke="#FFFFFF" stroke-width="3.5" cx="33.777" cy="212.58" r="12.041"/>
		<g>
			
				<line fill="none" stroke="#FFFFFF" stroke-width="3.5" stroke-linecap="round" stroke-linejoin="round" x1="7.564" y1="212.582" x2="14.132" y2="212.582"/>
			
				<line fill="none" stroke="#FFFFFF" stroke-width="3.5" stroke-linecap="round" stroke-linejoin="round" x1="53.422" y1="212.582" x2="59.989" y2="212.582"/>
		</g>
		<g>
			
				<line fill="none" stroke="#FFFFFF" stroke-width="3.5" stroke-linecap="round" stroke-linejoin="round" x1="52.313" y1="231.118" x2="47.666" y2="226.475"/>
			
				<line fill="none" stroke="#FFFFFF" stroke-width="3.5" stroke-linecap="round" stroke-linejoin="round" x1="19.886" y1="198.688" x2="15.242" y2="194.047"/>
		</g>
		<g>
			
				<line fill="none" stroke="#FFFFFF" stroke-width="3.5" stroke-linecap="round" stroke-linejoin="round" x1="33.776" y1="238.794" x2="33.776" y2="232.229"/>
			
				<line fill="none" stroke="#FFFFFF" stroke-width="3.5" stroke-linecap="round" stroke-linejoin="round" x1="33.776" y1="192.935" x2="33.776" y2="186.367"/>
		</g>
		<g>
			
				<line fill="none" stroke="#FFFFFF" stroke-width="3.5" stroke-linecap="round" stroke-linejoin="round" x1="52.313" y1="194.045" x2="47.669" y2="198.688"/>
			
				<line fill="none" stroke="#FFFFFF" stroke-width="3.5" stroke-linecap="round" stroke-linejoin="round" x1="19.886" y1="226.471" x2="15.243" y2="231.114"/>
		</g>
	</g>
	<path fill="#FFFFFF" d="M541.385,200.817c-0.066,0-0.125,0.02-0.189,0.02c0.217-0.871,0.348-1.772,0.348-2.71
		c0-6.089-4.941-11.032-11.031-11.032c-4.25,0-7.938,2.407-9.781,5.932c-0.494-0.086-0.994-0.153-1.514-0.153
		c-4.621,0-8.377,3.521-8.842,8.015c-0.232-0.02-0.457-0.071-0.695-0.071c-4.195,0-7.592,3.398-7.592,7.588
		c0,4.195,3.396,7.594,7.592,7.594c3.49,0,27.596,0,31.705,0c4.191,0,7.59-3.399,7.59-7.594
		C548.975,204.215,545.577,200.817,541.385,200.817z"/>
	<g>
		<path fill="#FFFFFF" d="M510.512,204.309c-5.787-1.028-9.852-6.048-9.852-11.727l0,0c0-0.688,0.055-1.396,0.189-2.101l0,0
			c1.027-5.784,6.047-9.849,11.734-9.849l0,0c0.686,0,1.389,0.059,2.098,0.189l0,0c5.779,1.028,9.84,6.053,9.84,11.731l0,0
			c0.004,0.696-0.059,1.393-0.18,2.094l0,0l-1.49-0.256l1.49,0.264c-1.027,5.78-6.053,9.839-11.732,9.839l0,0
			C511.915,204.493,511.209,204.435,510.512,204.309L510.512,204.309z M503.823,191.026c-0.096,0.511-0.137,1.032-0.137,1.556l0,0
			c0,4.228,3.037,7.985,7.354,8.75l0,0c0.523,0.091,1.051,0.138,1.57,0.138l0,0c4.229,0,7.992-3.033,8.754-7.343l0,0h0.002
			c0.086-0.535,0.133-1.06,0.133-1.574l0,0c0.004-4.227-3.033-7.994-7.348-8.753l0,0c-0.527-0.096-1.051-0.142-1.566-0.142l0,0
			C508.348,183.657,504.588,186.689,503.823,191.026L503.823,191.026z"/>
		<g>
			<path fill="#FFFFFF" d="M495.596,191.085l-5.598-0.993c-0.822-0.147-1.371-0.93-1.223-1.754l0,0
				c0.145-0.82,0.93-1.369,1.754-1.222l0,0l5.594,0.992c0.822,0.143,1.373,0.93,1.227,1.75l0,0c-0.131,0.735-0.768,1.25-1.488,1.25
				l0,0C495.776,191.109,495.684,191.101,495.596,191.085L495.596,191.085z"/>
			<path fill="#FFFFFF" d="M534.661,198.024l-5.596-0.994c-0.822-0.148-1.367-0.933-1.223-1.755l0,0
				c0.148-0.823,0.934-1.373,1.756-1.226l0,0l5.59,1c0.824,0.143,1.373,0.932,1.227,1.754l0,0c-0.131,0.729-0.768,1.245-1.488,1.245
				l0,0C534.84,198.047,534.749,198.04,534.661,198.024L534.661,198.024z"/>
		</g>
		<g>
			<path fill="#FFFFFF" d="M524.338,212.03l-3.25-4.661c-0.479-0.684-0.311-1.627,0.371-2.106l0,0
				c0.689-0.478,1.629-0.311,2.107,0.373l0,0l3.256,4.661c0.477,0.684,0.309,1.628-0.379,2.105l0,0
				c-0.264,0.184-0.564,0.272-0.861,0.272l0,0C525.106,212.675,524.635,212.45,524.338,212.03L524.338,212.03z"/>
			<path fill="#FFFFFF" d="M501.622,179.498l-3.254-4.659c-0.479-0.682-0.311-1.625,0.373-2.102l0,0
				c0.688-0.478,1.629-0.314,2.107,0.373l0,0l3.256,4.654c0.48,0.683,0.312,1.625-0.373,2.107l0,0
				c-0.264,0.184-0.564,0.272-0.865,0.272l0,0C502.389,180.143,501.918,179.918,501.622,179.498L501.622,179.498z"/>
		</g>
		<path fill="#FFFFFF" d="M515.305,177.318c-0.822-0.143-1.371-0.926-1.227-1.752l0,0l0.992-5.598
			c0.145-0.821,0.936-1.371,1.756-1.224l0,0c0.82,0.146,1.371,0.931,1.225,1.753l0,0l-0.994,5.597
			c-0.129,0.732-0.766,1.248-1.486,1.248l0,0C515.483,177.341,515.393,177.333,515.305,177.318L515.305,177.318z"/>
		<g>
			<path fill="#FFFFFF" d="M525.297,183.706c-0.479-0.684-0.312-1.628,0.371-2.106l0,0l4.66-3.261
				c0.684-0.478,1.627-0.31,2.105,0.375l0,0c0.479,0.683,0.311,1.627-0.373,2.106l0,0l-4.66,3.256
				c-0.264,0.185-0.566,0.274-0.867,0.274l0,0C526.059,184.349,525.59,184.125,525.297,183.706L525.297,183.706z"/>
			<path fill="#FFFFFF" d="M492.762,206.418c-0.479-0.682-0.314-1.625,0.371-2.106l0,0l4.662-3.254
				c0.684-0.478,1.625-0.31,2.104,0.373l0,0c0.48,0.687,0.312,1.629-0.373,2.107l0,0l-4.66,3.258
				c-0.264,0.183-0.566,0.271-0.863,0.271l0,0C493.526,207.067,493.055,206.84,492.762,206.418L492.762,206.418z"/>
		</g>
	</g>
	<g>
		<circle fill="#FFFFFF" cx="505.712" cy="243.266" r="2.521"/>
		<path fill="#FFFFFF" d="M522.532,234.763c0,1.394-1.131,2.521-2.523,2.521c-1.389,0-2.52-1.126-2.52-2.521
			c0-1.391,1.131-2.521,2.52-2.521C521.401,232.242,522.532,233.373,522.532,234.763z"/>
		<circle fill="#FFFFFF" cx="529.72" cy="243.266" r="2.521"/>
		<path fill="#FFFFFF" d="M532.227,236.28c-0.771-0.319-1.139-1.205-0.82-1.973l0,0l5.441-13.131
			c0.318-0.773,1.203-1.138,1.973-0.819l0,0c0.773,0.319,1.141,1.205,0.822,1.973l0,0l-5.439,13.132
			c-0.242,0.583-0.805,0.934-1.4,0.934l0,0C532.61,236.396,532.417,236.358,532.227,236.28L532.227,236.28z"/>
		<path fill="#FFFFFF" d="M508.11,236.283c-0.771-0.323-1.139-1.207-0.82-1.978l0,0l5.441-13.13c0.316-0.771,1.203-1.14,1.973-0.821
			l0,0c0.771,0.323,1.141,1.207,0.822,1.978l0,0l-5.441,13.13c-0.24,0.583-0.805,0.936-1.398,0.936l0,0
			C508.493,236.397,508.297,236.361,508.11,236.283L508.11,236.283z"/>
		<path fill="#FFFFFF" d="M522.952,228.224c-0.771-0.318-1.137-1.208-0.818-1.976l0,0l2.018-4.871
			c0.318-0.771,1.205-1.136,1.973-0.817l0,0c0.771,0.319,1.141,1.203,0.822,1.975l0,0l-2.018,4.871
			c-0.242,0.582-0.805,0.933-1.398,0.933l0,0C523.336,228.339,523.141,228.303,522.952,228.224L522.952,228.224z"/>
	</g>
	<path fill="#FFFFFF" d="M644.073,219.85h-3.234l2.287-2.289c0.592-0.588,0.588-1.545,0-2.137c-0.594-0.588-1.549-0.588-2.141,0
		l-2.283,2.285v-3.229c0-0.838-0.678-1.516-1.51-1.516c-0.84,0-1.512,0.677-1.512,1.516v3.233l-2.287-2.288
		c-0.59-0.592-1.551-0.592-2.139,0c-0.594,0.588-0.594,1.549,0,2.138l2.285,2.286h-3.23c-0.838,0-1.516,0.677-1.516,1.515
		c0,0.834,0.678,1.512,1.516,1.512h3.229l-2.285,2.287c-0.588,0.588-0.588,1.545,0.004,2.138c0.295,0.295,0.68,0.442,1.064,0.442
		c0.389,0,0.775-0.148,1.074-0.442l2.285-2.288v3.235c0,0.834,0.672,1.511,1.512,1.511c0.832,0,1.51-0.677,1.51-1.511v-3.238
		l2.289,2.288c0.293,0.296,0.68,0.445,1.068,0.445s0.775-0.149,1.072-0.445c0.588-0.588,0.588-1.545,0-2.137l-2.287-2.285h3.229
		c0.836,0,1.514-0.678,1.514-1.512C645.586,220.527,644.909,219.85,644.073,219.85z M637.19,223.243
		c-1.037,0-1.875-0.843-1.875-1.879c0-1.036,0.838-1.878,1.875-1.878s1.879,0.843,1.879,1.878
		C639.069,222.4,638.227,223.243,637.19,223.243z"/>
	<path fill="#FFFFFF" d="M662.034,229.825h-3.234l2.291-2.29c0.59-0.589,0.59-1.546,0-2.135c-0.592-0.594-1.549-0.594-2.139,0
		l-2.287,2.285v-3.232c0-0.839-0.676-1.512-1.51-1.512c-0.838,0-1.516,0.673-1.516,1.512v3.228l-2.283-2.283
		c-0.588-0.589-1.547-0.589-2.137,0c-0.592,0.59-0.592,1.547-0.004,2.141l2.287,2.287h-3.232c-0.838,0-1.514,0.674-1.514,1.513
		c0,0.835,0.676,1.514,1.514,1.514h3.227l-2.283,2.281c-0.588,0.594-0.588,1.551,0,2.14c0.295,0.294,0.682,0.442,1.07,0.442
		c0.387,0,0.775-0.148,1.07-0.442l2.285-2.285v3.232c0,0.834,0.678,1.512,1.516,1.512c0.834,0,1.51-0.678,1.51-1.512v-3.229
		l2.283,2.284c0.295,0.294,0.682,0.442,1.07,0.442c0.387,0,0.773-0.147,1.07-0.442c0.59-0.593,0.594-1.551,0-2.14l-2.283-2.283
		h3.229c0.836,0,1.512-0.679,1.512-1.514C663.545,230.499,662.87,229.825,662.034,229.825z M655.153,233.215
		c-1.035,0-1.879-0.843-1.879-1.879c0-1.036,0.844-1.879,1.879-1.879s1.875,0.843,1.875,1.879
		C657.028,232.372,656.188,233.215,655.153,233.215z"/>
	<path fill="#FFFFFF" d="M664.795,192.7c-0.076,0-0.143,0.02-0.213,0.02c0.244-1.036,0.389-2.119,0.389-3.237
		c0-7.287-5.537-13.198-12.367-13.198c-4.762,0-8.893,2.879-10.957,7.093c-0.555-0.103-1.115-0.181-1.699-0.181
		c-5.182,0-9.387,4.21-9.91,9.586c-0.26-0.023-0.514-0.083-0.781-0.083c-4.697,0-8.506,4.064-8.506,9.077
		c0,5.014,3.809,9.079,8.506,9.079c3.914,0,30.934,0,35.539,0c4.693,0,8.506-4.064,8.506-9.079
		C673.301,196.765,669.489,192.7,664.795,192.7z"/>
	<polygon fill="#FFFFFF" points="766.569,216.272 774.061,216.272 769.067,224.599 775.727,224.599 764.348,240.691 768.51,228.762 
		762.129,228.762 	"/>
	<path fill="#FFFFFF" d="M788.807,217.773c0.035-0.138-0.182-0.229-0.248-0.103c-2.316,4.112-5.432,3.88-6.668,6.889
		c-0.766,1.863,0.176,4.014,2.027,4.77c1.848,0.76,4.029-0.11,4.793-1.969C789.944,224.346,787.561,222.326,788.807,217.773"/>
	<path fill="none" stroke="#FFFFFF" stroke-width="2" d="M792.411,196.663c-0.068,0-0.127,0.016-0.189,0.016
		c0.217-0.867,0.346-1.772,0.346-2.706c0-6.093-4.938-11.036-11.031-11.036c-4.25,0-7.936,2.406-9.779,5.931
		c-0.494-0.086-0.994-0.153-1.514-0.153c-4.623,0-8.377,3.521-8.846,8.019c-0.23-0.023-0.453-0.071-0.691-0.071
		c-4.195,0-7.59,3.399-7.59,7.589c0,4.19,3.395,7.589,7.59,7.589c3.488,0,27.596,0,31.705,0c4.189,0,7.59-3.399,7.59-7.589
		C800,200.062,796.6,196.663,792.411,196.663z"/>
	<path fill="#FFFFFF" d="M760.706,196.663c0.238,0,0.461,0.047,0.691,0.071c0.469-4.498,4.223-8.019,8.846-8.019
		c0.52,0,1.02,0.067,1.514,0.153c0.445-0.851,1-1.63,1.643-2.332c0.205-1.186,0.275-2.41,0.162-3.663
		c-0.705-7.649-7.48-13.285-15.129-12.58c-0.807,0.079-1.592,0.232-2.352,0.438c4.4,1.154,7.822,4.938,8.264,9.728
		c0.561,6.113-3.939,11.524-10.053,12.087c-2.414,0.225-4.709-0.351-6.646-1.493c1.957,3.411,5.301,5.876,9.191,6.7
		C757.973,197.077,759.286,196.663,760.706,196.663z"/>
	<path fill="#FFFFFF" d="M169.709,192.7c-0.075,0-0.138,0.021-0.208,0.021c0.244-1.038,0.39-2.121,0.39-3.239
		c0-7.287-5.542-13.198-12.367-13.198c-4.766,0-8.895,2.879-10.961,7.093c-0.555-0.101-1.115-0.181-1.697-0.181
		c-5.181,0-9.39,4.21-9.912,9.586c-0.26-0.023-0.512-0.083-0.78-0.083c-4.701,0-8.507,4.064-8.507,9.078
		c0,5.013,3.807,9.078,8.507,9.078c3.913,0,30.932,0,35.536,0c4.699,0,8.507-4.064,8.507-9.078
		C178.216,196.765,174.408,192.7,169.709,192.7z"/>
	<path fill="#FFFFFF" d="M136.491,232.133c-2.415,0-4.606-0.429-6.325-1.204l0,0c-1.656-0.762-3.183-1.945-3.248-3.957l0,0
		c0.065-2.01,1.595-3.193,3.248-3.956l0,0c1.664-0.75,3.775-1.172,6.101-1.201l0,0c0.73-1.185,1.991-1.978,3.423-2.59l0,0
		c1.908-0.788,4.299-1.228,6.928-1.228l0,0c0.394,0,0.77,0.014,1.132,0.034l0,0c2.499-1.814,6.402-2.789,10.861-2.812l0,0
		c3.42,0.004,6.524,0.614,8.905,1.685l0,0c2.271,1.042,4.177,2.595,4.317,4.981l0,0c1.75,0.153,3.336,0.54,4.647,1.13l0,0
		c1.652,0.763,3.18,1.946,3.251,3.956l0,0c-0.071,2.012-1.595,3.194-3.251,3.957l0,0c-1.719,0.775-3.907,1.204-6.321,1.204l0,0
		C165.792,232.133,140.197,232.133,136.491,232.133L136.491,232.133z M170.158,229.112c3.052,0.042,5.673-0.965,6.321-1.751l0,0
		c0.223-0.247,0.223-0.351,0.227-0.388l0,0c-0.004-0.036-0.004-0.14-0.227-0.387l0,0c-0.219-0.239-0.648-0.543-1.249-0.816l0,0
		c-1.195-0.543-3.033-0.935-5.073-0.931l0,0v-1.392v1.392c0-0.004-0.014,0.005-0.203,0.005l0,0h-2.583l1.264-2.251
		c0.136-0.243,0.177-0.424,0.177-0.56l0,0c0.071-0.457-0.618-1.513-2.542-2.369l0,0c-1.863-0.845-4.616-1.422-7.66-1.418l0,0
		c-4.25-0.029-7.938,1.166-9.392,2.477l0,0l-0.479,0.412l-0.626-0.045c-0.512-0.042-1.002-0.07-1.497-0.066l0,0
		c-2.278-0.004-4.334,0.4-5.77,0.998l0,0c-1.475,0.588-2.139,1.405-2.146,1.677l0,0l-0.28,1.231l-1.266-0.057
		c-0.295-0.017-0.506-0.037-0.664-0.033l0,0c-3.056-0.045-5.677,0.961-6.325,1.748l0,0c-0.223,0.247-0.223,0.351-0.223,0.387l0,0
		c0,0.038,0,0.141,0.223,0.388l0,0c0.218,0.239,0.648,0.548,1.249,0.816l0,0c1.195,0.547,3.033,0.939,5.077,0.93l0,0
		C140.193,229.107,165.792,229.107,170.158,229.112L170.158,229.112z"/>
	<path fill="#FFFFFF" d="M411.358,216.719c0.035-0.138-0.182-0.229-0.248-0.103c-2.316,4.112-5.432,3.88-6.668,6.889
		c-0.764,1.863,0.18,4.014,2.027,4.77c1.85,0.76,4.029-0.11,4.795-1.969C412.499,223.293,410.116,221.272,411.358,216.719"/>
	<path fill="none" stroke="#FFFFFF" stroke-width="2" d="M414.721,194.644c-0.066,0-0.125,0.02-0.189,0.02
		c0.219-0.871,0.35-1.772,0.35-2.71c0-6.092-4.943-11.035-11.033-11.035c-4.25,0-7.936,2.408-9.779,5.931
		c-0.496-0.084-0.996-0.153-1.516-0.153c-4.619,0-8.375,3.521-8.842,8.018c-0.232-0.02-0.457-0.071-0.693-0.071
		c-4.195,0-7.591,3.399-7.591,7.59c0,4.195,3.396,7.593,7.591,7.593c3.49,0,27.594,0,31.703,0c4.191,0,7.59-3.398,7.59-7.593
		C422.311,198.042,418.913,194.644,414.721,194.644z"/>
	<path fill="#FFFFFF" d="M383.018,194.644c0.236,0,0.461,0.051,0.693,0.071c0.467-4.497,4.223-8.018,8.842-8.018
		c0.52,0,1.02,0.069,1.516,0.153c0.445-0.851,1.002-1.63,1.643-2.332c0.205-1.186,0.275-2.41,0.16-3.663
		c-0.703-7.649-7.479-13.283-15.126-12.578c-0.81,0.077-1.591,0.23-2.354,0.438c4.399,1.152,7.824,4.937,8.263,9.726
		c0.562,6.113-3.938,11.524-10.053,12.087c-2.41,0.225-4.706-0.351-6.644-1.493c1.955,3.41,5.299,5.875,9.192,6.699
		C380.284,195.057,381.596,194.644,383.018,194.644z"/>
	<path fill="#FFFFFF" d="M399.344,222.27h-3.23l2.285-2.286c0.592-0.595,0.588-1.55,0-2.144c-0.592-0.59-1.551-0.59-2.141,0
		l-2.279,2.28v-3.226c0-0.835-0.682-1.511-1.516-1.511c-0.836,0-1.512,0.676-1.512,1.511v3.234l-2.283-2.286
		c-0.594-0.59-1.549-0.59-2.143,0c-0.592,0.59-0.592,1.549,0,2.139l2.287,2.289h-3.232c-0.836,0-1.514,0.676-1.514,1.511
		s0.678,1.512,1.514,1.512h3.227l-2.283,2.287c-0.592,0.59-0.586,1.545,0,2.14c0.297,0.294,0.682,0.442,1.07,0.442
		s0.773-0.147,1.072-0.442l2.285-2.288v3.235c0,0.834,0.676,1.51,1.512,1.51c0.834,0,1.516-0.676,1.516-1.51v-3.233l2.283,2.283
		c0.293,0.295,0.68,0.443,1.068,0.443c0.387,0,0.773-0.147,1.07-0.443c0.588-0.589,0.592-1.549,0-2.139l-2.285-2.285h3.229
		c0.836,0,1.516-0.677,1.516-1.512S400.18,222.27,399.344,222.27z M392.463,225.66c-1.037,0-1.877-0.843-1.877-1.878
		s0.84-1.878,1.877-1.878s1.875,0.843,1.875,1.878S393.5,225.66,392.463,225.66z"/>
	<g>
		<path fill="#FFFFFF" d="M293.86,192.698c-0.076,0-0.142,0.021-0.213,0.021c0.244-1.04,0.391-2.119,0.391-3.24
			c0-7.286-5.54-13.196-12.365-13.196c-4.766,0-8.896,2.879-10.961,7.093c-0.556-0.103-1.116-0.185-1.699-0.185
			c-5.18,0-9.388,4.21-9.911,9.59c-0.26-0.025-0.511-0.084-0.778-0.084c-4.701,0-8.508,4.065-8.508,9.075
			c0,5.018,3.807,9.083,8.508,9.083c3.911,0,30.932,0,35.537,0c4.695,0,8.506-4.064,8.506-9.083
			C302.366,196.764,298.556,192.698,293.86,192.698z"/>
		<path fill="#FFFFFF" d="M285.176,214.983c0.036-0.138-0.181-0.225-0.248-0.102c-2.315,4.115-5.433,3.879-6.666,6.892
			c-0.764,1.859,0.178,4.009,2.028,4.77c1.848,0.756,4.027-0.11,4.791-1.974C286.316,221.557,283.934,219.537,285.176,214.983"/>
		<path fill="#FFFFFF" d="M270.595,215.058c0.054-0.201-0.261-0.331-0.363-0.149c-3.386,6.018-7.941,5.675-9.749,10.079
			c-1.116,2.722,0.263,5.865,2.968,6.975c2.702,1.107,5.89-0.161,7.006-2.883C272.264,224.672,268.779,221.718,270.595,215.058"/>
	</g>
	<path fill="none" stroke="#FFFFFF" stroke-width="3" d="M27.583,15.265c-1.362,0.128-2.681,0.39-3.961,0.738
		c7.408,1.938,13.172,8.314,13.914,16.376c0.945,10.294-6.634,19.406-16.926,20.354c-4.061,0.374-7.926-0.594-11.19-2.513
		c4.417,7.702,13.033,12.557,22.455,11.69c12.883-1.186,22.367-12.586,21.18-25.468C51.87,23.565,40.462,14.078,27.583,15.265z"/>
	<circle fill="#FFFFFF" cx="505.349" cy="71.368" r="2.521"/>
	<path fill="#FFFFFF" d="M522.168,62.866c0,1.392-1.125,2.521-2.518,2.521c-1.395,0-2.521-1.128-2.521-2.521
		s1.127-2.519,2.521-2.519C521.043,60.348,522.168,61.474,522.168,62.866z"/>
	<circle fill="#FFFFFF" cx="529.359" cy="71.368" r="2.521"/>
	<path fill="#FFFFFF" d="M531.866,64.385c-0.768-0.32-1.139-1.205-0.818-1.978l0,0l5.441-13.126
		c0.318-0.773,1.203-1.138,1.973-0.819l0,0c0.771,0.319,1.141,1.205,0.82,1.973l0,0l-5.439,13.131
		c-0.242,0.583-0.805,0.934-1.396,0.934l0,0C532.252,64.5,532.055,64.463,531.866,64.385L531.866,64.385z"/>
	<path fill="#FFFFFF" d="M507.749,64.386c-0.771-0.319-1.141-1.203-0.822-1.974l0,0l5.441-13.134
		c0.318-0.771,1.203-1.135,1.975-0.817l0,0c0.771,0.319,1.139,1.203,0.82,1.974l0,0l-5.441,13.134
		c-0.24,0.582-0.801,0.932-1.396,0.932l0,0C508.131,64.501,507.938,64.464,507.749,64.386L507.749,64.386z"/>
	<path fill="#FFFFFF" d="M522.59,56.324c-0.771-0.318-1.139-1.203-0.818-1.975l0,0l2.014-4.87c0.32-0.772,1.207-1.137,1.977-0.818
		l0,0c0.771,0.319,1.139,1.204,0.82,1.976l0,0l-2.016,4.871c-0.24,0.582-0.805,0.933-1.398,0.933l0,0
		C522.975,56.439,522.78,56.403,522.59,56.324L522.59,56.324z"/>
	<path fill="none" stroke="#FFFFFF" stroke-width="2" d="M541.116,27.937c-0.066,0-0.125,0.02-0.189,0.02
		c0.221-0.87,0.352-1.772,0.352-2.709c0-6.093-4.943-11.034-11.035-11.034c-4.248,0-7.936,2.408-9.779,5.929
		c-0.494-0.083-0.994-0.152-1.514-0.152c-4.621,0-8.377,3.52-8.842,8.017c-0.232-0.02-0.457-0.071-0.695-0.071
		c-4.195,0-7.592,3.399-7.592,7.59c0,4.194,3.396,7.593,7.592,7.593c3.49,0,27.596,0,31.703,0c4.191,0,7.59-3.399,7.59-7.593
		C548.706,31.336,545.307,27.937,541.116,27.937z"/>
	<path fill="#FFFFFF" d="M509.413,27.937c0.238,0,0.463,0.051,0.695,0.071c0.465-4.498,4.221-8.017,8.842-8.017
		c0.52,0,1.02,0.069,1.514,0.152c0.445-0.849,1-1.63,1.643-2.332c0.205-1.184,0.275-2.41,0.162-3.663
		C521.563,6.5,514.79,0.867,507.141,1.572c-0.811,0.075-1.592,0.23-2.355,0.437c4.4,1.15,7.824,4.937,8.264,9.725
		c0.564,6.114-3.938,11.526-10.051,12.089c-2.41,0.223-4.707-0.353-6.645-1.493c1.953,3.409,5.297,5.874,9.191,6.697
		C506.68,28.351,507.993,27.937,509.413,27.937z"/>
	<path fill="#FFFFFF" d="M650.122,55.695h-3.232l2.287-2.286c0.588-0.593,0.588-1.55-0.004-2.139c-0.588-0.593-1.547-0.593-2.139,0
		l-2.283,2.283v-3.23c0-0.834-0.676-1.511-1.512-1.511s-1.51,0.677-1.51,1.511v3.234l-2.287-2.285c-0.588-0.594-1.549-0.594-2.139,0
		c-0.588,0.588-0.588,1.545,0,2.138l2.285,2.285h-3.23c-0.838,0-1.512,0.678-1.512,1.512c0,0.839,0.674,1.511,1.512,1.511h3.232
		l-2.287,2.288c-0.592,0.593-0.588,1.549,0,2.143c0.295,0.293,0.682,0.44,1.068,0.44s0.775-0.147,1.07-0.445l2.287-2.287v3.236
		c0,0.834,0.674,1.511,1.51,1.511s1.512-0.677,1.512-1.511v-3.235l2.287,2.287c0.297,0.296,0.686,0.445,1.072,0.445
		s0.775-0.148,1.07-0.445c0.588-0.588,0.588-1.55,0-2.138l-2.291-2.289h3.232c0.836,0,1.514-0.672,1.514-1.511
		C651.635,56.373,650.958,55.695,650.122,55.695z M643.239,59.087c-1.035,0-1.875-0.843-1.875-1.879c0-1.036,0.84-1.879,1.875-1.879
		c1.037,0,1.879,0.843,1.879,1.879C645.118,58.244,644.276,59.087,643.239,59.087z"/>
	<path fill="#FFFFFF" d="M668.083,65.667h-3.227l2.283-2.284c0.59-0.589,0.59-1.552,0-2.141c-0.592-0.589-1.551-0.589-2.141,0
		l-2.283,2.284v-3.23c0-0.834-0.678-1.513-1.512-1.513c-0.84,0-1.514,0.679-1.514,1.513v3.233l-2.283-2.285
		c-0.59-0.593-1.549-0.593-2.137,0c-0.594,0.59-0.594,1.547-0.004,2.137l2.285,2.286h-3.232c-0.84,0-1.514,0.679-1.514,1.514
		s0.674,1.513,1.514,1.513h3.229l-2.283,2.284c-0.59,0.59-0.59,1.547,0,2.141c0.295,0.294,0.68,0.442,1.068,0.442
		c0.387,0,0.773-0.148,1.072-0.442l2.285-2.286v3.23c0,0.84,0.674,1.513,1.514,1.513c0.834,0,1.512-0.673,1.512-1.513v-3.229
		l2.281,2.283c0.299,0.296,0.684,0.445,1.07,0.445c0.389,0,0.773-0.149,1.07-0.445c0.59-0.589,0.594-1.547,0-2.137l-2.283-2.286
		h3.229c0.836,0,1.514-0.678,1.514-1.513S668.918,65.667,668.083,65.667z M661.204,69.06c-1.037,0-1.879-0.843-1.879-1.878
		c0-1.036,0.842-1.879,1.879-1.879c1.035,0,1.873,0.843,1.873,1.879C663.077,68.217,662.239,69.06,661.204,69.06z"/>
	<path fill="#FFFFFF" d="M667.446,32.096c-0.068,0-0.127,0.02-0.189,0.02c0.217-0.87,0.346-1.772,0.346-2.709
		c0-6.093-4.941-11.036-11.031-11.036c-4.25,0-7.936,2.411-9.779,5.932c-0.496-0.083-0.994-0.154-1.514-0.154
		c-4.623,0-8.377,3.521-8.846,8.019c-0.229-0.02-0.453-0.071-0.691-0.071c-4.195,0-7.59,3.399-7.59,7.59
		c0,4.194,3.395,7.593,7.59,7.593c3.488,0,27.592,0,31.705,0c4.189,0,7.59-3.399,7.59-7.593
		C675.036,35.495,671.635,32.096,667.446,32.096z"/>
	<g>
		<path fill="#FFFFFF" d="M636.567,35.587c-5.779-1.029-9.848-6.051-9.848-11.738l0,0c0-0.686,0.055-1.393,0.188-2.092l0,0
			c1.027-5.784,6.053-9.848,11.736-9.848l0,0c0.686,0,1.389,0.059,2.1,0.186l0,0c5.779,1.033,9.84,6.056,9.84,11.738l0,0
			c0.004,0.69-0.059,1.388-0.182,2.087l0,0l-1.486-0.259l1.486,0.267c-1.029,5.785-6.055,9.846-11.734,9.846l0,0
			C637.969,35.774,637.27,35.715,636.567,35.587L636.567,35.587z M629.881,22.3c-0.094,0.512-0.137,1.029-0.141,1.55l0,0
			c0,4.234,3.041,7.999,7.352,8.76l0,0c0.527,0.094,1.059,0.14,1.574,0.14l0,0c4.23-0.004,7.994-3.032,8.758-7.35l0,0h0.002
			c0.092-0.535,0.133-1.058,0.133-1.567l0,0c0-4.23-3.033-7.994-7.352-8.761l0,0c-0.533-0.093-1.049-0.14-1.564-0.14l0,0
			C634.411,14.932,630.647,17.968,629.881,22.3L629.881,22.3z"/>
		<g>
			<path fill="#FFFFFF" d="M621.653,22.36l-5.594-0.993c-0.824-0.144-1.373-0.931-1.225-1.755l0,0c0.143-0.82,0.93-1.37,1.754-1.222
				l0,0l5.594,0.989c0.822,0.148,1.373,0.935,1.225,1.755l0,0c-0.129,0.735-0.768,1.249-1.49,1.249l0,0
				C621.831,22.383,621.743,22.375,621.653,22.36L621.653,22.36z"/>
			<path fill="#FFFFFF" d="M660.717,29.298l-5.592-0.992c-0.82-0.144-1.369-0.933-1.225-1.754l0,0
				c0.146-0.821,0.934-1.369,1.754-1.224l0,0l5.594,0.992c0.822,0.147,1.371,0.932,1.225,1.753l0,0
				c-0.129,0.733-0.766,1.25-1.484,1.25l0,0C660.899,29.322,660.809,29.314,660.717,29.298L660.717,29.298z"/>
		</g>
		<g>
			<path fill="#FFFFFF" d="M650.397,43.31l-3.252-4.663c-0.479-0.682-0.312-1.626,0.373-2.105l0,0
				c0.686-0.479,1.627-0.309,2.105,0.373l0,0l3.252,4.662c0.48,0.683,0.314,1.626-0.373,2.105l0,0
				c-0.264,0.184-0.564,0.272-0.865,0.272l0,0C651.161,43.955,650.692,43.73,650.397,43.31L650.397,43.31z"/>
			<path fill="#FFFFFF" d="M627.684,10.775l-3.254-4.656c-0.48-0.686-0.311-1.629,0.373-2.106l0,0
				c0.684-0.479,1.627-0.313,2.105,0.372l0,0l3.254,4.66c0.48,0.682,0.311,1.624-0.371,2.106l0,0
				c-0.266,0.184-0.566,0.271-0.865,0.271l0,0C628.448,11.422,627.977,11.196,627.684,10.775L627.684,10.775z"/>
		</g>
		<path fill="#FFFFFF" d="M641.364,8.6c-0.82-0.148-1.371-0.931-1.227-1.752l0,0l0.99-5.6c0.148-0.821,0.932-1.372,1.754-1.223l0,0
			c0.824,0.144,1.373,0.932,1.227,1.752l0,0l-0.99,5.596c-0.129,0.733-0.771,1.25-1.492,1.25l0,0
			C641.54,8.623,641.454,8.615,641.364,8.6L641.364,8.6z"/>
		<g>
			<path fill="#FFFFFF" d="M651.358,14.978c-0.48-0.686-0.314-1.626,0.373-2.105l0,0l4.654-3.254
				c0.682-0.479,1.627-0.313,2.105,0.373l0,0c0.479,0.687,0.309,1.627-0.375,2.105l0,0l-4.656,3.254
				c-0.264,0.185-0.566,0.273-0.867,0.273l0,0C652.116,15.624,651.647,15.399,651.358,14.978L651.358,14.978z"/>
			<path fill="#FFFFFF" d="M618.821,37.696c-0.477-0.686-0.307-1.627,0.377-2.105l0,0l4.662-3.256
				c0.684-0.478,1.621-0.309,2.1,0.376l0,0c0.48,0.686,0.314,1.628-0.371,2.106l0,0l-4.66,3.251
				c-0.266,0.187-0.566,0.275-0.865,0.275l0,0C619.586,38.343,619.116,38.116,618.821,37.696L618.821,37.696z"/>
		</g>
	</g>
	<path fill="#FFFFFF" d="M787.85,17.925c-0.08,0-0.143,0.023-0.213,0.023c0.244-1.04,0.389-2.119,0.389-3.241
		c0-7.287-5.541-13.194-12.367-13.194c-4.762,0-8.893,2.879-10.959,7.093c-0.555-0.102-1.115-0.185-1.699-0.185
		c-5.18,0-9.387,4.21-9.908,9.59c-0.262-0.027-0.514-0.086-0.781-0.086c-4.699,0-8.506,4.064-8.506,9.078s3.807,9.079,8.506,9.079
		c3.912,0,30.93,0,35.539,0c4.693,0,8.502-4.065,8.502-9.079S792.543,17.925,787.85,17.925z"/>
	<path fill="#FFFFFF" d="M768.491,43.385h-3.232l2.285-2.288c0.592-0.59,0.592-1.551,0-2.141c-0.588-0.59-1.551-0.59-2.141,0
		l-2.279,2.282v-3.225c0-0.833-0.68-1.513-1.514-1.513c-0.836,0-1.512,0.68-1.512,1.513v3.23l-2.287-2.287
		c-0.59-0.59-1.547-0.59-2.141,0c-0.586,0.59-0.59,1.547,0,2.141l2.287,2.287h-3.232c-0.836,0-1.512,0.675-1.512,1.512
		c0,0.834,0.676,1.508,1.512,1.508h3.232l-2.289,2.29c-0.588,0.59-0.588,1.547,0,2.137c0.297,0.296,0.682,0.444,1.07,0.444
		c0.387,0,0.775-0.148,1.07-0.444l2.289-2.289v3.239c0,0.833,0.676,1.511,1.512,1.511c0.834,0,1.514-0.678,1.514-1.511V48.55
		l2.281,2.283c0.297,0.294,0.684,0.442,1.072,0.442c0.387,0,0.773-0.147,1.068-0.442c0.59-0.59,0.594-1.547,0-2.141l-2.285-2.287
		h3.23c0.834,0,1.514-0.674,1.514-1.508C770.004,44.061,769.325,43.385,768.491,43.385z M761.608,46.775
		c-1.035,0-1.877-0.843-1.877-1.878s0.842-1.875,1.877-1.875c1.039,0,1.877,0.839,1.877,1.875S762.647,46.775,761.608,46.775z"/>
	<path fill="#FFFFFF" d="M774.542,62.503h-3.232l2.283-2.284c0.592-0.594,0.588-1.547,0-2.142c-0.592-0.59-1.549-0.59-2.139,0.004
		l-2.281,2.282v-3.229c0-0.837-0.68-1.513-1.512-1.513c-0.838,0-1.514,0.675-1.514,1.513v3.231l-2.285-2.286
		c-0.592-0.589-1.549-0.594-2.139,0c-0.59,0.59-0.594,1.548,0,2.138l2.283,2.285h-3.23c-0.84,0-1.516,0.68-1.516,1.513
		c0,0.838,0.676,1.514,1.516,1.514h3.23l-2.285,2.286c-0.592,0.59-0.592,1.547,0,2.142c0.295,0.294,0.682,0.441,1.066,0.441
		c0.389,0,0.777-0.149,1.074-0.446l2.285-2.287v3.238c0,0.833,0.676,1.513,1.514,1.513c0.832,0,1.512-0.68,1.512-1.513V67.67
		l2.285,2.285c0.295,0.295,0.682,0.443,1.068,0.443c0.389,0,0.775-0.148,1.074-0.443c0.584-0.59,0.588-1.551,0-2.142l-2.287-2.284
		h3.229c0.832,0,1.512-0.676,1.512-1.514C776.053,63.183,775.374,62.503,774.542,62.503z M767.659,65.897
		c-1.037,0-1.877-0.843-1.877-1.879c0-1.036,0.84-1.878,1.877-1.878s1.877,0.843,1.877,1.878
		C769.536,65.054,768.696,65.897,767.659,65.897z"/>
	<path fill="#FFFFFF" d="M786.454,49.323h-3.232l2.287-2.288c0.59-0.59,0.59-1.549,0-2.139c-0.592-0.591-1.551-0.591-2.143,0
		l-2.283,2.283v-3.223c0-0.838-0.68-1.513-1.512-1.513c-0.84,0-1.516,0.675-1.516,1.513v3.226l-2.281-2.284
		c-0.592-0.591-1.549-0.591-2.139,0c-0.592,0.591-0.592,1.549,0,2.139l2.283,2.286h-3.23c-0.84,0-1.514,0.675-1.514,1.514
		c0,0.834,0.674,1.51,1.514,1.51h3.227l-2.285,2.286c-0.588,0.589-0.588,1.548,0,2.138c0.295,0.295,0.684,0.442,1.07,0.442
		c0.389,0,0.777-0.147,1.072-0.442l2.283-2.284v3.235c0,0.833,0.676,1.51,1.516,1.51c0.832,0,1.512-0.677,1.512-1.51v-3.234
		l2.285,2.285c0.295,0.296,0.682,0.442,1.068,0.442s0.773-0.146,1.07-0.442c0.59-0.59,0.59-1.549,0-2.138l-2.287-2.288h3.234
		c0.834,0,1.514-0.676,1.514-1.51C787.967,49.998,787.288,49.323,786.454,49.323z M779.571,52.714c-1.037,0-1.879-0.843-1.879-1.878
		s0.842-1.875,1.879-1.875c1.035,0,1.879,0.839,1.879,1.875S780.606,52.714,779.571,52.714z"/>
	<path fill="#FFFFFF" d="M168.675,23.58c-0.077,0-0.142,0.021-0.213,0.021c0.244-1.039,0.39-2.12,0.39-3.239
		c0-7.287-5.54-13.197-12.367-13.197c-4.764,0-8.894,2.879-10.959,7.093c-0.556-0.102-1.115-0.183-1.698-0.183
		c-5.181,0-9.389,4.21-9.911,9.588c-0.26-0.024-0.512-0.083-0.78-0.083c-4.701,0-8.507,4.064-8.507,9.077
		c0,5.015,3.807,9.08,8.507,9.08c3.913,0,30.931,0,35.538,0c4.695,0,8.505-4.064,8.505-9.08
		C177.181,27.645,173.37,23.58,168.675,23.58z"/>
	<path fill="#FFFFFF" d="M415.708,23.58c-0.074,0-0.141,0.021-0.213,0.021c0.244-1.039,0.391-2.12,0.391-3.239
		c0-7.287-5.537-13.197-12.367-13.197c-4.762,0-8.893,2.879-10.957,7.093c-0.555-0.102-1.117-0.183-1.699-0.183
		c-5.182,0-9.388,4.21-9.912,9.588c-0.26-0.024-0.512-0.083-0.78-0.083c-4.698,0-8.507,4.064-8.507,9.077
		c0,5.015,3.809,9.08,8.507,9.08h35.538c4.695,0,8.508-4.064,8.508-9.08C424.215,27.645,420.403,23.58,415.708,23.58z
		 M397.592,64.798c0.037-0.138-0.18-0.226-0.248-0.102c-2.314,4.113-5.432,3.878-6.666,6.891c-0.764,1.861,0.178,4.01,2.029,4.769
		c1.846,0.758,4.029-0.109,4.791-1.972C398.733,71.373,396.35,69.352,397.592,64.798z M401.352,43.083
		c0.035-0.138-0.182-0.225-0.248-0.101c-2.316,4.113-5.432,3.878-6.668,6.891c-0.764,1.861,0.18,4.01,2.027,4.769
		c1.85,0.758,4.029-0.109,4.795-1.971C402.491,49.657,400.11,47.637,401.352,43.083z M390.426,48.447
		c0.055-0.202-0.26-0.33-0.363-0.15c-3.387,6.017-7.941,5.674-9.749,10.079c-1.117,2.721,0.262,5.864,2.967,6.974
		c2.701,1.108,5.891-0.161,7.006-2.882C392.096,58.062,388.61,55.108,390.426,48.447z M413.676,48.447
		c0.051-0.202-0.26-0.33-0.363-0.15c-3.387,6.017-7.943,5.674-9.752,10.079c-1.113,2.721,0.264,5.864,2.967,6.974
		c2.705,1.108,5.891-0.161,7.01-2.882C415.346,58.062,411.86,55.108,413.676,48.447z"/>
	<path fill="#FFFFFF" d="M294.865,23.58c-0.075,0-0.143,0.021-0.213,0.021c0.244-1.039,0.392-2.12,0.392-3.239
		c0-7.287-5.539-13.197-12.367-13.197c-4.764,0-8.895,2.879-10.96,7.093c-0.556-0.102-1.115-0.183-1.698-0.183
		c-5.181,0-9.389,4.21-9.911,9.588c-0.261-0.024-0.512-0.083-0.779-0.083c-4.7,0-8.507,4.064-8.507,9.077
		c0,5.015,3.807,9.08,8.507,9.08c3.912,0,30.933,0,35.537,0c4.696,0,8.507-4.064,8.507-9.08
		C303.372,27.645,299.562,23.58,294.865,23.58z"/>
	<path fill="#FFFFFF" d="M272.046,61.153c-0.774-0.32-1.14-1.204-0.819-1.974l0,0l5.438-13.132c0.32-0.773,1.205-1.139,1.979-0.818
		l0,0c0.77,0.321,1.135,1.206,0.818,1.975l0,0l-5.44,13.132c-0.243,0.583-0.805,0.936-1.396,0.935l0,0
		C272.431,61.269,272.235,61.233,272.046,61.153L272.046,61.153z"/>
	<path fill="#FFFFFF" d="M255.917,60.21c-0.771-0.32-1.138-1.203-0.816-1.976l0,0l5.436-13.132c0.32-0.771,1.207-1.137,1.977-0.817
		l0,0c0.771,0.32,1.138,1.204,0.821,1.976l0,0l-5.44,13.132c-0.241,0.582-0.804,0.933-1.396,0.933l0,0
		C256.305,60.327,256.107,60.29,255.917,60.21L255.917,60.21z"/>
	<path fill="#FFFFFF" d="M288.172,60.212c-0.77-0.321-1.136-1.206-0.818-1.976l0,0l5.438-13.132c0.321-0.774,1.206-1.136,1.977-0.82
		l0,0c0.773,0.322,1.14,1.207,0.819,1.976l0,0l-5.438,13.133c-0.242,0.582-0.808,0.933-1.401,0.933l0,0
		C288.556,60.327,288.36,60.291,288.172,60.212L288.172,60.212z"/>
	<path fill="#FFFFFF" d="M267.16,51.949c-0.772-0.321-1.139-1.208-0.817-1.978l0,0l2.014-4.867c0.321-0.772,1.205-1.139,1.978-0.818
		l0,0c0.772,0.321,1.139,1.204,0.817,1.973l0,0l-2.014,4.867c-0.243,0.584-0.809,0.937-1.403,0.937l0,0
		C267.542,52.063,267.348,52.025,267.16,51.949L267.16,51.949z"/>
	<path fill="#FFFFFF" d="M283.736,51.945c-0.772-0.316-1.139-1.202-0.818-1.976l0,0l2.016-4.867c0.321-0.77,1.206-1.136,1.976-0.819
		l0,0c0.773,0.321,1.14,1.205,0.819,1.979l0,0l-2.017,4.864c-0.242,0.583-0.805,0.936-1.396,0.936l0,0
		C284.122,52.062,283.926,52.024,283.736,51.945L283.736,51.945z"/>
	<path fill="#FFFFFF" d="M261.351,64.955c-0.772-0.32-1.139-1.203-0.818-1.976l0,0l2.014-4.865c0.321-0.773,1.208-1.138,1.978-0.818
		l0,0c0.771,0.316,1.138,1.205,0.821,1.976l0,0l-2.018,4.866c-0.241,0.583-0.804,0.934-1.396,0.934l0,0
		C261.737,65.071,261.541,65.034,261.351,64.955L261.351,64.955z"/>
	<path fill="#FFFFFF" d="M277.926,64.956c-0.772-0.321-1.139-1.205-0.818-1.975l0,0l2.016-4.866
		c0.321-0.773,1.206-1.139,1.979-0.822l0,0c0.77,0.321,1.136,1.206,0.819,1.978l0,0l-2.02,4.866
		c-0.239,0.584-0.804,0.936-1.396,0.936l0,0C278.312,65.072,278.115,65.035,277.926,64.956L277.926,64.956z"/>
	<g>
		<path fill="#FFFFFF" d="M538.293,523.401c-0.074,0-0.141,0.023-0.213,0.023c0.244-1.04,0.395-2.119,0.395-3.241
			c0-7.286-5.541-13.194-12.367-13.194c-4.766,0-8.895,2.879-10.961,7.094c-0.555-0.103-1.117-0.186-1.699-0.186
			c-5.18,0-9.389,4.211-9.91,9.59c-0.26-0.027-0.512-0.086-0.779-0.086c-4.701,0-8.508,4.064-8.508,9.078s3.807,9.078,8.508,9.078
			c3.91,0,30.932,0,35.535,0c4.699,0,8.508-4.064,8.508-9.078S542.993,523.401,538.293,523.401z"/>
	</g>
	<g>
		<circle fill="#FFFFFF" cx="501.005" cy="568.804" r="2.521"/>
		<circle fill="#FFFFFF" cx="515.304" cy="560.301" r="2.521"/>
		<path fill="#FFFFFF" d="M527.534,568.804c0,1.395-1.127,2.521-2.521,2.521c-1.389,0-2.52-1.126-2.52-2.521
			c0-1.39,1.131-2.521,2.52-2.521C526.407,566.284,527.534,567.415,527.534,568.804z"/>
		<path fill="#FFFFFF" d="M527.522,561.818c-0.773-0.319-1.139-1.204-0.818-1.976l0,0l5.438-13.125
			c0.32-0.772,1.205-1.141,1.975-0.821l0,0c0.771,0.319,1.139,1.209,0.82,1.978l0,0L529.497,561
			c-0.24,0.583-0.805,0.934-1.398,0.934l0,0C527.907,561.934,527.709,561.896,527.522,561.818L527.522,561.818z"/>
		<path fill="#FFFFFF" d="M503.403,561.824c-0.773-0.319-1.137-1.208-0.818-1.976l0,0l5.439-13.133
			c0.318-0.772,1.203-1.137,1.973-0.817l0,0c0.773,0.319,1.141,1.203,0.822,1.974l0,0l-5.439,13.131
			c-0.24,0.585-0.805,0.936-1.4,0.936l0,0C503.786,561.938,503.59,561.9,503.403,561.824L503.403,561.824z"/>
		<path fill="#FFFFFF" d="M518.247,553.759c-0.771-0.319-1.141-1.203-0.82-1.976l0,0l2.016-4.867
			c0.318-0.772,1.207-1.137,1.975-0.82l0,0c0.773,0.319,1.141,1.206,0.818,1.976l0,0l-2.014,4.87
			c-0.24,0.583-0.805,0.934-1.398,0.934l0,0C518.631,553.875,518.436,553.838,518.247,553.759L518.247,553.759z"/>
	</g>
	<g>
		<g>
			<path fill="#FFFFFF" d="M648.622,554.255h-3.229l2.285-2.284c0.588-0.589,0.588-1.55,0-2.139c-0.59-0.589-1.551-0.589-2.139,0
				l-2.285,2.282v-3.229c0-0.835-0.678-1.513-1.514-1.513s-1.512,0.678-1.512,1.513v3.231l-2.281-2.284
				c-0.594-0.589-1.549-0.593-2.141,0c-0.59,0.589-0.594,1.546,0,2.139l2.281,2.284h-3.234c-0.834,0-1.512,0.678-1.512,1.517
				c0,0.835,0.678,1.512,1.512,1.512h3.229l-2.281,2.283c-0.588,0.593-0.588,1.55,0,2.143c0.297,0.293,0.686,0.441,1.07,0.441
				c0.389,0,0.777-0.148,1.072-0.441l2.285-2.289v3.236c0,0.835,0.676,1.512,1.512,1.512s1.514-0.677,1.514-1.512v-3.234
				l2.285,2.287c0.295,0.293,0.682,0.441,1.068,0.443c0.387,0,0.773-0.148,1.07-0.443c0.588-0.593,0.592-1.55,0-2.139l-2.285-2.287
				h3.229c0.836,0,1.514-0.677,1.514-1.512C650.135,554.933,649.458,554.255,648.622,554.255z M641.743,557.651
				c-1.037,0-1.879-0.844-1.879-1.879c0-1.036,0.842-1.879,1.879-1.879c1.035,0,1.877,0.843,1.877,1.879
				C643.62,556.807,642.778,557.651,641.743,557.651z"/>
		</g>
	</g>
	<g>
		<g>
			<path fill="#FFFFFF" d="M654.672,573.381h-3.229l2.285-2.287c0.59-0.594,0.59-1.551,0-2.141c-0.592-0.586-1.549-0.586-2.143,0
				l-2.281,2.283v-3.228c0-0.837-0.678-1.515-1.518-1.515c-0.832,0-1.51,0.678-1.51,1.515v3.231l-2.283-2.282
				c-0.588-0.595-1.545-0.595-2.139-0.007c-0.588,0.594-0.592,1.553,0,2.139l2.289,2.291h-3.238c-0.838,0-1.512,0.674-1.512,1.512
				c0,0.836,0.674,1.513,1.512,1.513h3.227l-2.283,2.282c-0.588,0.594-0.588,1.551,0,2.143c0.295,0.294,0.684,0.441,1.072,0.441
				c0.387,0,0.773-0.147,1.07-0.441l2.285-2.284v3.228c0,0.835,0.678,1.513,1.51,1.513c0.84,0,1.518-0.678,1.518-1.513v-3.231
				l2.283,2.286c0.295,0.296,0.684,0.443,1.072,0.443c0.385,0,0.771-0.147,1.066-0.443c0.59-0.588,0.594-1.545,0-2.139l-2.283-2.284
				h3.229c0.836,0,1.512-0.677,1.512-1.513C656.184,574.055,655.508,573.381,654.672,573.381z M647.792,576.768
				c-1.035,0-1.879-0.839-1.879-1.875c0-1.035,0.844-1.878,1.879-1.878c1.037,0,1.875,0.843,1.875,1.878
				C649.667,575.929,648.829,576.768,647.792,576.768z"/>
		</g>
	</g>
	<g>
		<g>
			<path fill="#FFFFFF" d="M666.586,560.199h-3.234l2.285-2.288c0.594-0.593,0.59-1.552,0-2.141
				c-0.592-0.589-1.545-0.589-2.141,0.004l-2.281,2.284v-3.233c0-0.835-0.678-1.513-1.514-1.513c-0.838,0-1.512,0.678-1.512,1.513
				v3.231l-2.285-2.284c-0.59-0.589-1.547-0.589-2.141,0c-0.588,0.591-0.588,1.548,0,2.141l2.287,2.286h-3.232
				c-0.834,0-1.51,0.674-1.51,1.513c0,0.835,0.676,1.51,1.51,1.51h3.234l-2.287,2.289c-0.594,0.588-0.588,1.548,0,2.137
				c0.297,0.295,0.684,0.442,1.07,0.442s0.775-0.147,1.07-0.442l2.283-2.285v3.234c0,0.834,0.674,1.512,1.512,1.512
				c0.836,0,1.514-0.678,1.514-1.512v-3.236l2.287,2.289c0.295,0.293,0.682,0.44,1.07,0.44c0.387,0,0.775-0.147,1.07-0.44
				c0.59-0.593,0.59-1.553,0-2.141l-2.285-2.287h3.229c0.836,0,1.512-0.675,1.512-1.51
				C668.098,560.873,667.422,560.199,666.586,560.199z M659.702,563.59c-1.035,0-1.875-0.844-1.875-1.879
				c0-1.036,0.84-1.879,1.875-1.879c1.037,0,1.879,0.843,1.879,1.879C661.581,562.747,660.739,563.59,659.702,563.59z"/>
		</g>
	</g>
	<path fill="none" stroke="#FFFFFF" stroke-width="2" d="M665.965,533.413c-0.068,0-0.127,0.02-0.189,0.02
		c0.217-0.87,0.346-1.772,0.346-2.709c0-6.094-4.939-11.036-11.031-11.036c-4.25,0-7.936,2.41-9.777,5.931
		c-0.494-0.082-0.994-0.153-1.516-0.153c-4.623,0-8.377,3.521-8.844,8.019c-0.23-0.02-0.455-0.07-0.695-0.07
		c-4.193,0-7.59,3.398-7.59,7.59c0,4.194,3.396,7.594,7.59,7.594c3.49,0,27.598,0,31.707,0c4.189,0,7.588-3.399,7.588-7.594
		C673.553,536.811,670.155,533.413,665.965,533.413z"/>
	<path fill="#FFFFFF" d="M634.258,533.413c0.24,0,0.465,0.051,0.695,0.07c0.467-4.497,4.221-8.019,8.844-8.019
		c0.521,0,1.021,0.071,1.516,0.153c0.443-0.851,0.998-1.63,1.641-2.331c0.205-1.186,0.275-2.41,0.16-3.663
		c-0.705-7.648-7.477-13.281-15.125-12.576c-0.811,0.075-1.594,0.229-2.354,0.438c4.398,1.15,7.822,4.936,8.264,9.725
		c0.562,6.112-3.939,11.524-10.053,12.088c-2.412,0.224-4.707-0.352-6.646-1.493c1.957,3.411,5.301,5.876,9.191,6.699
		C631.53,533.827,632.84,533.413,634.258,533.413z"/>
	<path fill="#FFFFFF" d="M783.237,537.576c-0.066,0-0.125,0.016-0.189,0.016c0.219-0.866,0.35-1.772,0.35-2.71
		c0-6.089-4.943-11.031-11.031-11.031c-4.252,0-7.938,2.406-9.781,5.932c-0.494-0.087-0.994-0.154-1.514-0.154
		c-4.623,0-8.377,3.521-8.844,8.016c-0.23-0.021-0.455-0.067-0.695-0.067c-4.195,0-7.59,3.396-7.59,7.59
		c0,4.19,3.395,7.589,7.59,7.589c3.49,0,27.596,0,31.705,0c4.191,0,7.59-3.398,7.59-7.589
		C790.827,540.971,787.428,537.576,783.237,537.576z"/>
	<g>
		<path fill="#FFFFFF" d="M752.362,541.065c-5.785-1.029-9.852-6.055-9.848-11.736l0,0c0-0.689,0.055-1.398,0.188-2.094l0,0
			c1.025-5.785,6.051-9.854,11.732-9.849l0,0c0.684-0.006,1.393,0.056,2.098,0.188l0,0c5.785,1.026,9.848,6.054,9.844,11.733l0,0
			c0.004,0.69-0.059,1.388-0.178,2.089l0,0l-1.492-0.252l1.492,0.264c-1.035,5.778-6.055,9.841-11.734,9.841l0,0
			C753.768,541.249,753.063,541.189,752.362,541.065L752.362,541.065z M745.674,527.787c-0.098,0.498-0.139,1.016-0.139,1.542l0,0
			c0.004,4.229,3.037,7.993,7.354,8.759l0,0c0.529,0.089,1.055,0.136,1.574,0.136l0,0c4.227,0,7.992-3.032,8.752-7.345l0,0l0,0
			c0.094-0.54,0.137-1.062,0.141-1.571l0,0c-0.004-4.23-3.033-7.996-7.361-8.76l0,0c-0.525-0.095-1.043-0.136-1.561-0.14l0,0
			C750.204,520.412,746.442,523.444,745.674,527.787L745.674,527.787z"/>
		<g>
			<path fill="#FFFFFF" d="M737.446,527.839l-5.594-0.992c-0.822-0.146-1.371-0.93-1.225-1.755l0,0
				c0.146-0.823,0.932-1.373,1.756-1.227l0,0l5.592,0.992c0.824,0.146,1.373,0.932,1.229,1.755l0,0
				c-0.133,0.734-0.773,1.25-1.494,1.25l0,0C737.624,527.863,737.534,527.855,737.446,527.839L737.446,527.839z"/>
			<path fill="#FFFFFF" d="M776.514,534.778l-5.594-0.997c-0.824-0.146-1.371-0.932-1.227-1.753l0,0
				c0.15-0.824,0.936-1.372,1.758-1.227l0,0l5.592,0.994c0.822,0.15,1.369,0.938,1.223,1.759l0,0
				c-0.129,0.73-0.77,1.247-1.488,1.247l0,0C776.692,534.801,776.602,534.793,776.514,534.778L776.514,534.778z"/>
		</g>
		<g>
			<path fill="#FFFFFF" d="M766.196,548.779l-3.258-4.657c-0.479-0.684-0.311-1.629,0.375-2.102l0,0
				c0.684-0.479,1.625-0.312,2.104,0.371l0,0l3.256,4.658c0.479,0.688,0.312,1.627-0.377,2.105l0,0
				c-0.264,0.186-0.564,0.273-0.861,0.273l0,0C766.958,549.428,766.489,549.203,766.196,548.779L766.196,548.779z"/>
			<path fill="#FFFFFF" d="M743.477,516.25l-3.256-4.657c-0.479-0.682-0.311-1.625,0.377-2.104l0,0
				c0.682-0.479,1.625-0.312,2.104,0.37l0,0l3.256,4.657c0.479,0.684,0.307,1.625-0.375,2.107l0,0
				c-0.264,0.185-0.564,0.273-0.865,0.273l0,0C744.241,516.898,743.772,516.671,743.477,516.25L743.477,516.25z"/>
		</g>
		<path fill="#FFFFFF" d="M757.159,514.075c-0.822-0.146-1.371-0.932-1.229-1.753l0,0l0.994-5.599
			c0.143-0.825,0.93-1.371,1.75-1.225l0,0c0.822,0.144,1.375,0.929,1.229,1.75l0,0l-0.99,5.599c-0.129,0.732-0.768,1.249-1.49,1.249
			l0,0C757.334,514.096,757.247,514.09,757.159,514.075L757.159,514.075z"/>
		<g>
			<path fill="#FFFFFF" d="M767.147,520.457c-0.479-0.683-0.312-1.628,0.371-2.106l0,0l4.66-3.258
				c0.686-0.479,1.629-0.311,2.109,0.372l0,0c0.475,0.689,0.307,1.629-0.377,2.107l0,0l-4.656,3.257
				c-0.264,0.186-0.566,0.273-0.865,0.273l0,0C767.913,521.102,767.442,520.878,767.147,520.457L767.147,520.457z"/>
			<path fill="#FFFFFF" d="M734.614,543.172c-0.479-0.684-0.311-1.627,0.377-2.104l0,0l4.656-3.257
				c0.688-0.477,1.627-0.308,2.105,0.376l0,0c0.48,0.688,0.311,1.627-0.373,2.107l0,0l-4.658,3.251
				c-0.264,0.186-0.568,0.274-0.867,0.274l0,0C735.377,543.821,734.907,543.594,734.614,543.172L734.614,543.172z"/>
		</g>
	</g>
	<polygon fill="none" stroke="#FFFFFF" points="755.631,556.587 763.125,556.587 758.129,564.914 764.792,564.914 753.415,581.006 
		757.575,569.077 751.194,569.077 	"/>
	<path fill="#FFFFFF" d="M777.87,558.087c0.037-0.138-0.18-0.228-0.248-0.103c-2.314,4.112-5.432,3.88-6.666,6.889
		c-0.766,1.863,0.176,4.014,2.027,4.77c1.848,0.761,4.029-0.109,4.791-1.969C779.008,564.661,776.625,562.641,777.87,558.087"/>
	<path fill="#FFFFFF" d="M166.318,557.351c0.036-0.138-0.181-0.225-0.248-0.103c-2.316,4.112-5.431,3.88-6.668,6.893
		c-0.764,1.859,0.179,4.01,2.028,4.766c1.849,0.76,4.029-0.106,4.793-1.969C167.458,563.924,165.075,561.905,166.318,557.351"/>
	<path fill="#FFFFFF" d="M151.737,557.426c0.053-0.201-0.262-0.331-0.364-0.15c-3.385,6.019-7.94,5.672-9.748,10.079
		c-1.116,2.722,0.262,5.864,2.968,6.976c2.702,1.106,5.89-0.162,7.005-2.883C153.405,567.04,149.922,564.086,151.737,557.426"/>
	<path fill="#FFFFFF" d="M419.717,537.576c-0.066,0-0.125,0.016-0.189,0.016c0.221-0.866,0.352-1.772,0.352-2.71
		c0-6.089-4.943-11.031-11.035-11.031c-4.25,0-7.936,2.406-9.777,5.932c-0.496-0.087-0.996-0.154-1.516-0.154
		c-4.621,0-8.377,3.521-8.842,8.016c-0.232-0.021-0.457-0.067-0.695-0.067c-4.195,0-7.592,3.396-7.592,7.59
		c0,4.19,3.397,7.589,7.592,7.589c3.49,0,27.596,0,31.703,0c4.191,0,7.59-3.398,7.59-7.589
		C427.307,540.971,423.909,537.576,419.717,537.576z"/>
	<g>
		<path fill="#FFFFFF" d="M388.844,541.065c-5.785-1.031-9.852-6.053-9.847-11.732l0,0c0-0.691,0.055-1.398,0.187-2.096l0,0
			c1.028-5.789,6.049-9.853,11.733-9.853l0,0c0.684,0,1.395,0.056,2.1,0.188l0,0c5.781,1.028,9.84,6.054,9.84,11.733l0,0
			c0.004,0.692-0.059,1.39-0.18,2.091l0,0l-1.49-0.25l1.49,0.262c-1.031,5.778-6.053,9.841-11.732,9.841l0,0
			C390.247,541.249,389.545,541.189,388.844,541.065L388.844,541.065z M382.157,527.781c-0.097,0.504-0.138,1.025-0.138,1.552l0,0
			c0,4.229,3.034,7.991,7.352,8.751l0,0c0.525,0.093,1.051,0.142,1.572,0.142l0,0c4.227,0,7.992-3.034,8.752-7.347l0,0h0.002
			c0.09-0.536,0.137-1.06,0.137-1.573l0,0c0-4.227-3.031-7.992-7.361-8.756l0,0c-0.518-0.097-1.035-0.138-1.557-0.142l0,0
			C386.682,520.412,382.92,523.442,382.157,527.781L382.157,527.781z"/>
		<g>
			<path fill="#FFFFFF" d="M373.93,527.839l-5.595-0.992c-0.825-0.146-1.372-0.934-1.226-1.757l0,0
				c0.146-0.821,0.93-1.371,1.751-1.225l0,0l5.599,0.992c0.821,0.146,1.367,0.934,1.226,1.757l0,0
				c-0.13,0.732-0.771,1.248-1.491,1.248l0,0C374.106,527.863,374.019,527.855,373.93,527.839L373.93,527.839z"/>
			<path fill="#FFFFFF" d="M412.995,534.78l-5.596-0.997c-0.822-0.147-1.369-0.936-1.223-1.753l0,0
				c0.146-0.826,0.934-1.374,1.754-1.227l0,0l5.596,0.996c0.822,0.146,1.369,0.932,1.223,1.753l0,0
				c-0.131,0.732-0.77,1.251-1.488,1.251l0,0C413.174,534.803,413.084,534.795,412.995,534.78L412.995,534.78z"/>
		</g>
		<g>
			<path fill="#FFFFFF" d="M402.672,548.781l-3.252-4.657c-0.477-0.686-0.311-1.629,0.375-2.105l0,0
				c0.686-0.48,1.625-0.312,2.105,0.373l0,0l3.254,4.66c0.477,0.686,0.309,1.625-0.377,2.105l0,0
				c-0.264,0.184-0.562,0.27-0.861,0.27l0,0C403.44,549.426,402.969,549.203,402.672,548.781L402.672,548.781z"/>
			<path fill="#FFFFFF" d="M379.96,516.252l-3.256-4.655c-0.479-0.686-0.312-1.631,0.372-2.105l0,0
				c0.684-0.48,1.629-0.313,2.105,0.37l0,0l3.255,4.651c0.478,0.689,0.313,1.631-0.372,2.111l0,0
				c-0.262,0.185-0.564,0.273-0.866,0.273l0,0C380.722,516.898,380.253,516.671,379.96,516.252L379.96,516.252z"/>
		</g>
		<path fill="#FFFFFF" d="M393.635,514.075c-0.82-0.146-1.367-0.934-1.223-1.755l0,0l0.994-5.597
			c0.145-0.821,0.928-1.373,1.754-1.227l0,0c0.82,0.146,1.373,0.933,1.225,1.754l0,0l-0.994,5.599
			c-0.131,0.733-0.768,1.249-1.488,1.249l0,0C393.813,514.098,393.725,514.09,393.635,514.075L393.635,514.075z"/>
		<g>
			<path fill="#FFFFFF" d="M403.627,520.458c-0.48-0.687-0.312-1.63,0.371-2.108l0,0l4.66-3.258
				c0.686-0.479,1.629-0.309,2.107,0.372l0,0c0.475,0.688,0.311,1.629-0.373,2.109l0,0l-4.66,3.257
				c-0.264,0.186-0.564,0.273-0.863,0.273l0,0C404.393,521.104,403.924,520.88,403.627,520.458L403.627,520.458z"/>
			<path fill="#FFFFFF" d="M371.094,543.172c-0.477-0.686-0.31-1.625,0.376-2.105l0,0l4.659-3.253
				c0.686-0.475,1.625-0.31,2.105,0.376l0,0c0.475,0.686,0.31,1.625-0.376,2.105l0,0l-4.659,3.253
				c-0.264,0.184-0.567,0.274-0.864,0.274l0,0C371.858,543.823,371.39,543.596,371.094,543.172L371.094,543.172z"/>
		</g>
	</g>
	<path fill="#FFFFFF" d="M413.217,555.91c0.037-0.138-0.18-0.225-0.248-0.103c-2.314,4.116-5.432,3.88-6.666,6.893
		c-0.766,1.859,0.176,4.01,2.027,4.77c1.848,0.756,4.029-0.11,4.791-1.973C414.358,562.483,411.975,560.462,413.217,555.91"/>
	<path fill="#FFFFFF" d="M401.362,562.456h-3.234l2.289-2.288c0.59-0.591,0.586-1.548,0-2.139c-0.594-0.593-1.553-0.589-2.141,0
		l-2.285,2.284v-3.231c0-0.835-0.676-1.515-1.51-1.515c-0.836,0-1.514,0.68-1.514,1.515v3.229l-2.283-2.282
		c-0.592-0.589-1.551-0.593-2.141,0c-0.59,0.591-0.59,1.548,0,2.139l2.289,2.288h-3.236c-0.838,0-1.512,0.676-1.512,1.513
		c0,0.833,0.674,1.511,1.512,1.511h3.23l-2.287,2.285c-0.59,0.592-0.586,1.549,0,2.139c0.295,0.296,0.684,0.443,1.07,0.443
		s0.775-0.147,1.07-0.443l2.287-2.285v3.234c0,0.836,0.678,1.513,1.514,1.513c0.834,0,1.51-0.677,1.51-1.513v-3.234l2.285,2.285
		c0.297,0.296,0.686,0.443,1.072,0.443c0.389,0,0.775-0.147,1.068-0.443c0.59-0.59,0.59-1.547,0-2.139l-2.287-2.285h3.232
		c0.834,0,1.512-0.678,1.512-1.511C402.874,563.131,402.196,562.456,401.362,562.456z M394.479,565.846
		c-1.035,0-1.877-0.842-1.877-1.878s0.842-1.879,1.877-1.879c1.037,0,1.877,0.843,1.877,1.879S395.516,565.846,394.479,565.846z"/>
	<path fill="#FFFFFF" d="M280.92,564.453c0.037-0.138-0.179-0.229-0.248-0.103c-2.314,4.111-5.431,3.879-6.666,6.889
		c-0.764,1.863,0.179,4.014,2.028,4.77c1.849,0.76,4.028-0.11,4.792-1.97C282.062,571.026,279.679,569.005,280.92,564.453"/>
	<path fill="#FFFFFF" d="M284.678,548.785c0.037-0.138-0.177-0.225-0.248-0.103c-2.313,4.116-5.431,3.88-6.665,6.893
		c-0.764,1.859,0.178,4.01,2.028,4.77c1.849,0.757,4.028-0.11,4.79-1.973C285.82,555.358,283.438,553.338,284.678,548.785"/>
	<path fill="#FFFFFF" d="M273.754,552.132c0.055-0.2-0.261-0.331-0.363-0.149c-3.385,6.018-7.94,5.676-9.749,10.079
		c-1.115,2.722,0.264,5.864,2.968,6.975c2.703,1.106,5.891-0.161,7.006-2.883C275.423,561.747,271.939,558.792,273.754,552.132"/>
	<path fill="#FFFFFF" d="M297.004,552.132c0.053-0.2-0.263-0.331-0.364-0.149c-3.386,6.018-7.94,5.676-9.748,10.079
		c-1.117,2.722,0.262,5.864,2.966,6.975c2.705,1.106,5.892-0.161,7.006-2.883C298.672,561.747,295.188,558.792,297.004,552.132"/>
	<path fill="#FFFFFF" d="M280.92,396.072c0.037-0.138-0.179-0.229-0.248-0.103c-2.314,4.111-5.431,3.879-6.666,6.889
		c-0.764,1.863,0.179,4.014,2.028,4.77c1.849,0.76,4.028-0.11,4.792-1.97C282.062,402.645,279.679,400.625,280.92,396.072"/>
	<path fill="#FFFFFF" d="M284.678,380.404c0.037-0.138-0.177-0.225-0.248-0.103c-2.313,4.116-5.431,3.88-6.665,6.893
		c-0.764,1.859,0.178,4.01,2.028,4.77c1.849,0.757,4.028-0.11,4.79-1.973C285.82,386.977,283.438,384.958,284.678,380.404"/>
	<path fill="#FFFFFF" d="M273.754,383.751c0.055-0.2-0.261-0.331-0.363-0.149c-3.385,6.018-7.94,5.676-9.749,10.079
		c-1.115,2.722,0.264,5.864,2.968,6.975c2.703,1.106,5.891-0.161,7.006-2.883C275.423,393.366,271.939,390.412,273.754,383.751"/>
	<path fill="#FFFFFF" d="M297.004,383.751c0.053-0.2-0.263-0.331-0.364-0.149c-3.386,6.018-7.94,5.676-9.748,10.079
		c-1.117,2.722,0.262,5.864,2.966,6.975c2.705,1.106,5.892-0.161,7.006-2.883C298.672,393.366,295.188,390.412,297.004,383.751"/>
	<path fill="#FFFFFF" d="M297.811,532.472c0.087-0.568,0.135-1.151,0.135-1.75c0-6.647-5.389-12.036-12.034-12.036
		c-3.057,0-5.833,1.161-7.955,3.042c0.045-0.691,0.045-1.393-0.021-2.104c-0.702-7.648-7.477-13.281-15.126-12.576
		c-0.809,0.075-1.592,0.229-2.353,0.438c4.399,1.15,7.822,4.936,8.263,9.725c0.562,6.112-3.938,11.524-10.053,12.088
		c-2.411,0.224-4.707-0.352-6.645-1.493c1.732,3.022,4.558,5.297,7.887,6.35c-2.073,1.568-3.418,4.048-3.418,6.848
		c0,4.747,3.841,8.593,8.59,8.595c3.49-0.002,27.595-0.002,31.703,0c4.744-0.002,8.588-3.848,8.59-8.595
		C305.373,536.605,302.071,532.979,297.811,532.472z M296.785,547.594h-31.703c-3.643-0.005-6.584-2.952-6.59-6.593
		c0.006-3.639,2.947-6.584,6.59-6.59h0.015c0.098,0,0.287,0.035,0.594,0.067l0.979,0.081l0.102-0.976
		c0.417-3.998,3.749-7.122,7.848-7.122c0.427,0,0.871,0.061,1.351,0.142l0.715,0.116l0.334-0.641
		c1.679-3.203,5.028-5.394,8.893-5.394c5.539,0.011,10.026,4.495,10.034,10.036c0,0.844-0.116,1.662-0.319,2.463l-0.317,1.245h1.288
		c0.114,0,0.193-0.012,0.231-0.019c3.617,0.03,6.541,2.966,6.547,6.59C303.369,544.642,300.421,547.589,296.785,547.594z"/>
	<path fill="#FFFFFF" d="M174.113,532.472c0.087-0.568,0.135-1.151,0.135-1.75c0-6.647-5.389-12.036-12.034-12.036
		c-3.057,0-5.833,1.161-7.955,3.042c0.045-0.691,0.045-1.393-0.021-2.104c-0.702-7.648-7.477-13.281-15.126-12.576
		c-0.809,0.075-1.592,0.229-2.353,0.438c4.399,1.15,7.822,4.936,8.263,9.725c0.562,6.112-3.938,11.524-10.053,12.088
		c-2.411,0.224-4.707-0.352-6.645-1.493c1.732,3.022,4.558,5.297,7.887,6.35c-2.073,1.568-3.418,4.048-3.418,6.848
		c0,4.747,3.841,8.593,8.59,8.595c3.49-0.002,27.595-0.002,31.703,0c4.744-0.002,8.588-3.848,8.59-8.595
		C181.675,536.605,178.373,532.979,174.113,532.472z M173.087,547.594h-31.703c-3.643-0.005-6.584-2.952-6.59-6.593
		c0.006-3.639,2.947-6.584,6.59-6.59h0.015c0.098,0,0.287,0.035,0.594,0.067l0.979,0.081l0.102-0.976
		c0.417-3.998,3.749-7.122,7.848-7.122c0.427,0,0.871,0.061,1.351,0.142l0.715,0.116l0.334-0.641
		c1.679-3.203,5.028-5.394,8.893-5.394c5.539,0.011,10.026,4.495,10.034,10.036c0,0.844-0.116,1.662-0.319,2.463l-0.317,1.245h1.288
		c0.114,0,0.193-0.012,0.231-0.019c3.617,0.03,6.541,2.966,6.547,6.59C179.671,544.642,176.724,547.589,173.087,547.594z"/>
	<path fill="#FFFFFF" d="M49.239,532.472c0.087-0.568,0.135-1.151,0.135-1.75c0-6.647-5.389-12.036-12.034-12.036
		c-3.057,0-5.833,1.161-7.955,3.042c0.045-0.691,0.045-1.393-0.021-2.104c-0.702-7.648-7.477-13.281-15.126-12.576
		c-0.809,0.075-1.592,0.229-2.353,0.438c4.399,1.15,7.822,4.936,8.263,9.725c0.562,6.112-3.938,11.524-10.053,12.088
		c-2.411,0.224-4.707-0.352-6.645-1.493c1.732,3.022,4.558,5.297,7.887,6.35c-2.073,1.568-3.418,4.048-3.418,6.848
		c0,4.747,3.841,8.593,8.59,8.595c3.49-0.002,27.595-0.002,31.703,0c4.744-0.002,8.588-3.848,8.59-8.595
		C56.801,536.605,53.499,532.979,49.239,532.472z M48.213,547.594H16.51c-3.643-0.005-6.584-2.952-6.59-6.593
		c0.006-3.639,2.947-6.584,6.59-6.59h0.015c0.098,0,0.287,0.035,0.594,0.067l0.979,0.081l0.102-0.976
		c0.417-3.998,3.749-7.122,7.848-7.122c0.427,0,0.871,0.061,1.351,0.142l0.715,0.116l0.334-0.641
		c1.679-3.203,5.028-5.394,8.893-5.394c5.539,0.011,10.026,4.495,10.034,10.036c0,0.844-0.116,1.662-0.319,2.463l-0.317,1.245h1.288
		c0.114,0,0.193-0.012,0.231-0.019c3.617,0.03,6.541,2.966,6.547,6.59C54.797,544.642,51.85,547.589,48.213,547.594z"/>
	<g>
		<path fill="#FFFFFF" d="M23.396,368.944c-0.683,0-1.369-0.059-2.059-0.179l0,0c-5.679-1.007-9.669-5.945-9.669-11.524l0,0
			c0-0.678,0.055-1.373,0.183-2.058l0,0c1.007-5.68,5.946-9.674,11.524-9.674l0,0c0.678,0,1.369,0.056,2.059,0.186l0,0
			c5.679,1.008,9.669,5.943,9.669,11.523l0,0c0,0.68-0.059,1.365-0.178,2.057l0,0l-1.491-0.26l1.487,0.264
			c-1.007,5.676-5.941,9.665-11.515,9.665l0,0C23.402,368.944,23.398,368.944,23.396,368.944L23.396,368.944z M14.828,355.72
			c-0.094,0.5-0.136,1.012-0.136,1.521l0,0c0,4.13,2.961,7.802,7.167,8.546l0,0c0.517,0.092,1.034,0.137,1.538,0.133l0,0
			c4.129,0,7.805-2.956,8.546-7.17l0,0h0.002c0.088-0.522,0.134-1.032,0.134-1.531l0,0c0-4.129-2.96-7.804-7.184-8.546l0,0
			c-0.508-0.097-1.012-0.136-1.521-0.136l0,0c-0.003,0-0.006,0-0.009,0l0,0C19.24,348.537,15.572,351.5,14.828,355.72L14.828,355.72
			z"/>
		<g>
			<path fill="#FFFFFF" d="M6.731,355.809l-5.481-0.974c-0.825-0.143-1.372-0.931-1.228-1.752l0,0
				c0.148-0.821,0.931-1.371,1.756-1.227l0,0l5.48,0.973c0.821,0.147,1.368,0.932,1.224,1.756l0,0
				c-0.128,0.73-0.766,1.247-1.484,1.247l0,0C6.912,355.833,6.822,355.825,6.731,355.809L6.731,355.809z"/>
			<path fill="#FFFFFF" d="M44.993,362.607l-5.479-0.973c-0.822-0.145-1.373-0.932-1.228-1.753l0,0
				c0.147-0.821,0.931-1.372,1.756-1.223l0,0l5.479,0.969c0.821,0.147,1.372,0.932,1.224,1.757l0,0
				c-0.129,0.732-0.769,1.246-1.49,1.246l0,0C45.169,362.63,45.082,362.623,44.993,362.607L44.993,362.607z"/>
		</g>
		<g>
			<path fill="#FFFFFF" d="M34.866,376.311l-3.186-4.561c-0.479-0.682-0.314-1.627,0.372-2.105l0,0
				c0.682-0.479,1.627-0.31,2.106,0.376l0,0l3.188,4.561c0.479,0.682,0.309,1.627-0.373,2.105l0,0
				c-0.264,0.186-0.565,0.273-0.864,0.273l0,0C35.631,376.96,35.161,376.732,34.866,376.311L34.866,376.311z"/>
			<path fill="#FFFFFF" d="M12.617,344.451l-3.188-4.562c-0.479-0.686-0.313-1.628,0.372-2.104l0,0
				c0.686-0.479,1.627-0.313,2.106,0.371l0,0l3.189,4.56c0.478,0.685,0.313,1.628-0.372,2.106l0,0
				c-0.265,0.186-0.567,0.274-0.867,0.274l0,0C13.38,345.096,12.912,344.87,12.617,344.451L12.617,344.451z"/>
		</g>
		<path fill="#FFFFFF" d="M26.033,342.332c-0.82-0.145-1.37-0.93-1.226-1.755l0,0l0.973-5.48c0.147-0.825,0.93-1.371,1.754-1.228
			l0,0c0.82,0.145,1.371,0.932,1.227,1.757l0,0l-0.973,5.48c-0.132,0.733-0.766,1.251-1.486,1.251l0,0
			C26.214,342.357,26.124,342.349,26.033,342.332L26.033,342.332z"/>
		<g>
			<path fill="#FFFFFF" d="M35.798,348.566c-0.478-0.686-0.309-1.629,0.376-2.107l0,0l4.561-3.186
				c0.685-0.479,1.628-0.31,2.107,0.375l0,0c0.478,0.686,0.308,1.625-0.377,2.104l0,0l-4.56,3.187
				c-0.265,0.183-0.568,0.272-0.867,0.272l0,0C36.561,349.21,36.091,348.986,35.798,348.566L35.798,348.566z"/>
			<path fill="#FFFFFF" d="M3.934,370.817c-0.479-0.684-0.31-1.627,0.377-2.105l0,0l4.562-3.187
				c0.687-0.479,1.627-0.309,2.106,0.379l0,0c0.479,0.681,0.309,1.626-0.373,2.099l0,0l-4.563,3.19
				c-0.263,0.186-0.565,0.271-0.864,0.271l0,0C4.7,371.464,4.228,371.238,3.934,370.817L3.934,370.817z"/>
		</g>
	</g>
	<path fill="#FFFFFF" d="M56.055,365.61c-0.075,0-0.138,0.023-0.207,0.023c0.238-1.02,0.382-2.075,0.382-3.174
		c0-7.137-5.427-12.927-12.113-12.927c-4.666,0-8.712,2.82-10.735,6.947c-0.543-0.098-1.093-0.177-1.664-0.177
		c-5.073,0-9.195,4.124-9.708,9.39c-0.254-0.023-0.5-0.083-0.762-0.083c-4.604,0-8.333,3.981-8.333,8.894
		c0,4.911,3.729,8.893,8.333,8.893c3.832,0,30.294,0,34.806,0c4.601,0,8.33-3.981,8.33-8.893
		C64.385,369.591,60.655,365.61,56.055,365.61z"/>
	<path fill="#FFFFFF" d="M519.133,387.566h-3.232l2.287-2.287c0.588-0.59,0.588-1.547,0-2.139c-0.592-0.592-1.551-0.588-2.143,0
		l-2.283,2.283v-3.229c0-0.838-0.678-1.514-1.514-1.514s-1.512,0.676-1.512,1.514v3.229l-2.281-2.283
		c-0.596-0.588-1.553-0.592-2.143,0s-0.59,1.549,0,2.139l2.285,2.287h-3.23c-0.84,0-1.514,0.677-1.514,1.514
		c0,0.835,0.674,1.515,1.514,1.515h3.227l-2.281,2.282c-0.594,0.589-0.59,1.548,0,2.139c0.295,0.296,0.682,0.443,1.066,0.443
		c0.389,0,0.777-0.147,1.072-0.443l2.285-2.286v3.233c0,0.837,0.676,1.515,1.512,1.515s1.514-0.678,1.514-1.515v-3.233l2.287,2.286
		c0.295,0.296,0.684,0.443,1.07,0.443s0.771-0.147,1.068-0.443c0.588-0.591,0.592-1.55,0-2.139l-2.283-2.282h3.229
		c0.836,0,1.514-0.68,1.514-1.515C520.647,388.243,519.969,387.566,519.133,387.566z M512.25,390.958
		c-1.037,0-1.877-0.843-1.877-1.879c0-1.035,0.84-1.879,1.877-1.879c1.035,0,1.879,0.844,1.879,1.879
		C514.129,390.116,513.286,390.958,512.25,390.958z"/>
	<path fill="#FFFFFF" d="M537.094,397.541h-3.232l2.285-2.287c0.594-0.593,0.59-1.552,0-2.143s-1.549-0.585-2.141,0l-2.281,2.285
		v-3.229c0-0.837-0.676-1.512-1.514-1.512c-0.834,0-1.51,0.675-1.51,1.512v3.229l-2.285-2.285c-0.592-0.585-1.551-0.591-2.143,0
		c-0.586,0.591-0.59,1.55,0,2.143l2.287,2.287h-3.232c-0.836,0-1.512,0.675-1.512,1.51c0,0.837,0.676,1.513,1.512,1.513h3.23
		l-2.285,2.286c-0.59,0.589-0.59,1.548,0,2.139c0.297,0.295,0.682,0.443,1.07,0.443c0.387,0,0.773-0.148,1.068-0.443l2.289-2.288
		v3.235c0,0.835,0.676,1.515,1.51,1.515c0.838,0,1.514-0.68,1.514-1.515v-3.233l2.285,2.286c0.295,0.295,0.684,0.443,1.072,0.443
		c0.385,0,0.773-0.148,1.068-0.443c0.59-0.591,0.59-1.55,0-2.139l-2.285-2.286h3.229c0.836,0,1.512-0.676,1.512-1.513
		C538.606,398.215,537.93,397.541,537.094,397.541z M530.211,400.931c-1.035,0-1.877-0.843-1.877-1.879
		c0-1.035,0.842-1.879,1.877-1.879c1.039,0,1.877,0.844,1.877,1.879C532.088,400.088,531.25,400.931,530.211,400.931z"/>
	<path fill="none" stroke="#FFFFFF" stroke-width="2" d="M537.1,361.786c-0.066,0-0.125,0.02-0.189,0.02
		c0.219-0.87,0.35-1.772,0.35-2.71c0-6.093-4.943-11.035-11.031-11.035c-4.252,0-7.939,2.41-9.781,5.932
		c-0.496-0.083-0.996-0.154-1.516-0.154c-4.619,0-8.375,3.521-8.842,8.02c-0.232-0.02-0.457-0.071-0.693-0.071
		c-4.195,0-7.592,3.399-7.592,7.59c0,4.194,3.396,7.593,7.592,7.593c3.49,0,27.594,0,31.703,0c4.191,0,7.59-3.398,7.59-7.593
		C544.69,365.185,541.292,361.786,537.1,361.786z"/>
	<path fill="#FFFFFF" d="M505.397,361.786c0.236,0,0.461,0.052,0.693,0.071c0.467-4.498,4.223-8.02,8.842-8.02
		c0.52,0,1.02,0.071,1.516,0.154c0.445-0.852,1.002-1.631,1.641-2.332c0.207-1.186,0.277-2.41,0.162-3.663
		c-0.703-7.648-7.477-13.28-15.127-12.575c-0.809,0.074-1.59,0.229-2.352,0.437c4.398,1.15,7.822,4.935,8.262,9.725
		c0.562,6.112-3.938,11.524-10.053,12.087c-2.41,0.225-4.707-0.35-6.645-1.492c1.955,3.41,5.299,5.876,9.193,6.699
		C502.665,362.199,503.975,361.786,505.397,361.786z"/>
	<path fill="#FFFFFF" d="M658.663,367.985c-0.066,0-0.127,0.02-0.189,0.02c0.221-0.87,0.352-1.772,0.352-2.71
		c0-6.093-4.943-11.031-11.033-11.031c-4.254,0-7.936,2.406-9.779,5.928c-0.496-0.083-0.996-0.15-1.516-0.15
		c-4.623,0-8.377,3.518-8.842,8.016c-0.232-0.02-0.457-0.071-0.695-0.071c-4.195,0-7.592,3.399-7.592,7.59
		c0,4.194,3.396,7.594,7.592,7.594c3.488,0,27.596,0,31.703,0c4.189,0,7.59-3.399,7.59-7.594
		C666.252,371.384,662.852,367.985,658.663,367.985z"/>
	<g>
		<path fill="#FFFFFF" d="M629.889,371.658c-0.699,0-1.396-0.059-2.102-0.182l0,0c-5.781-1.029-9.848-6.049-9.848-11.73l0,0
			c0-0.689,0.055-1.398,0.188-2.098l0,0c1.027-5.781,6.049-9.852,11.732-9.848l0,0c0.684-0.004,1.395,0.055,2.102,0.187l0,0
			c5.783,1.03,9.844,6.054,9.844,11.733l0,0c0,0.691-0.062,1.386-0.182,2.085l0,0l-1.49-0.254l1.49,0.266
			c-1.027,5.78-6.051,9.841-11.725,9.841l0,0C629.895,371.658,629.893,371.658,629.889,371.658L629.889,371.658z M621.104,358.196
			c-0.096,0.504-0.141,1.026-0.141,1.55l0,0c0,4.229,3.037,7.989,7.35,8.754l0,0c0.527,0.088,1.057,0.137,1.576,0.137l0,0
			c4.229-0.004,7.996-3.032,8.754-7.349l0,0l0,0c0.092-0.538,0.133-1.062,0.133-1.567l0,0c0.006-4.227-3.027-7.994-7.357-8.76l0,0
			c-0.521-0.093-1.037-0.136-1.559-0.14l0,0C625.627,350.825,621.866,353.857,621.104,358.196L621.104,358.196z"/>
		<g>
			<path fill="#FFFFFF" d="M612.872,358.25l-5.594-0.99c-0.82-0.147-1.373-0.93-1.227-1.757l0,0c0.146-0.82,0.93-1.37,1.756-1.223
				l0,0l5.596,0.99c0.82,0.148,1.371,0.932,1.227,1.757l0,0c-0.133,0.732-0.771,1.247-1.492,1.247l0,0
				C613.049,358.275,612.961,358.267,612.872,358.25L612.872,358.25z"/>
			<path fill="#FFFFFF" d="M651.942,365.187l-5.596-0.991c-0.818-0.149-1.369-0.931-1.225-1.755l0,0
				c0.148-0.82,0.932-1.37,1.758-1.227l0,0l5.59,0.994c0.822,0.145,1.373,0.932,1.225,1.753l0,0
				c-0.129,0.733-0.766,1.249-1.484,1.249l0,0C652.12,365.21,652.03,365.203,651.942,365.187L651.942,365.187z"/>
		</g>
		<g>
			<path fill="#FFFFFF" d="M641.62,379.194l-3.254-4.659c-0.479-0.686-0.311-1.627,0.371-2.105l0,0
				c0.688-0.479,1.629-0.309,2.107,0.377l0,0l3.256,4.659c0.479,0.685,0.309,1.626-0.373,2.104l0,0
				c-0.264,0.186-0.564,0.272-0.865,0.272l0,0C642.383,379.842,641.917,379.616,641.62,379.194L641.62,379.194z"/>
			<path fill="#FFFFFF" d="M618.905,346.662l-3.258-4.657c-0.477-0.686-0.311-1.629,0.373-2.107l0,0
				c0.686-0.477,1.629-0.313,2.107,0.378l0,0l3.256,4.658c0.479,0.685,0.311,1.628-0.375,2.104l0,0
				c-0.262,0.185-0.562,0.272-0.861,0.272l0,0C619.67,347.31,619.2,347.083,618.905,346.662L618.905,346.662z"/>
		</g>
		<path fill="#FFFFFF" d="M632.583,344.486c-0.82-0.145-1.369-0.932-1.227-1.753l0,0l0.994-5.597
			c0.145-0.821,0.93-1.371,1.756-1.227l0,0c0.82,0.147,1.369,0.932,1.223,1.756l0,0l-0.99,5.598c-0.131,0.73-0.77,1.246-1.488,1.246
			l0,0C632.762,344.509,632.674,344.501,632.583,344.486L632.583,344.486z"/>
		<g>
			<path fill="#FFFFFF" d="M642.573,350.866c-0.479-0.685-0.312-1.626,0.373-2.104l0,0l4.658-3.256
				c0.686-0.479,1.629-0.309,2.107,0.377l0,0c0.479,0.681,0.311,1.626-0.375,2.104l0,0l-4.658,3.251
				c-0.266,0.186-0.566,0.273-0.867,0.273l0,0C643.334,351.511,642.866,351.288,642.573,350.866L642.573,350.866z"/>
			<path fill="#FFFFFF" d="M610.04,373.589c-0.479-0.688-0.311-1.627,0.371-2.107l0,0l4.662-3.257
				c0.686-0.479,1.627-0.313,2.105,0.372l0,0c0.479,0.684,0.312,1.627-0.373,2.107l0,0l-4.658,3.257
				c-0.264,0.186-0.564,0.272-0.863,0.272l0,0C610.805,374.234,610.334,374.009,610.04,373.589L610.04,373.589z"/>
		</g>
	</g>
	<path fill="#FFFFFF" d="M641.667,388.503h-3.232l2.283-2.285c0.59-0.591,0.59-1.55,0-2.143c-0.59-0.585-1.547-0.585-2.139,0
		l-2.285,2.287v-3.227c0-0.841-0.676-1.514-1.51-1.514c-0.838,0-1.512,0.673-1.512,1.514v3.229l-2.283-2.287
		c-0.596-0.589-1.549-0.589-2.139,0c-0.594,0.589-0.594,1.548-0.004,2.139l2.285,2.287h-3.234c-0.836,0-1.512,0.677-1.512,1.514
		c0,0.835,0.676,1.513,1.512,1.513h3.229l-2.281,2.282c-0.59,0.595-0.59,1.552,0,2.143c0.295,0.295,0.68,0.441,1.068,0.441
		c0.387,0,0.773-0.146,1.07-0.441l2.289-2.29v3.235c0,0.837,0.674,1.517,1.512,1.517c0.834,0,1.51-0.68,1.51-1.517v-3.233
		l2.283,2.286c0.297,0.295,0.684,0.443,1.072,0.443c0.387,0,0.771-0.148,1.066-0.443c0.594-0.591,0.594-1.55,0.004-2.139
		l-2.281-2.284h3.229c0.836,0,1.512-0.678,1.512-1.513C643.178,389.18,642.502,388.503,641.667,388.503z M634.784,391.896
		c-1.037,0-1.879-0.843-1.879-1.879c0-1.035,0.842-1.875,1.879-1.875c1.035,0,1.873,0.84,1.873,1.875
		C636.657,391.053,635.819,391.896,634.784,391.896z"/>
	<path fill="#FFFFFF" d="M647.717,407.625h-3.232l2.285-2.284c0.586-0.589,0.586-1.55,0-2.141c-0.59-0.589-1.551-0.589-2.141,0
		l-2.285,2.284v-3.229c0-0.837-0.68-1.513-1.512-1.513c-0.838,0-1.512,0.676-1.512,1.513v3.231l-2.283-2.284
		c-0.59-0.595-1.549-0.595-2.141-0.004c-0.59,0.591-0.59,1.55,0,2.141l2.285,2.286h-3.234c-0.836,0-1.512,0.676-1.512,1.517
		c0,0.831,0.676,1.511,1.512,1.511h3.229l-2.285,2.284c-0.586,0.589-0.586,1.55,0,2.141c0.295,0.293,0.684,0.44,1.068,0.44
		c0.389,0,0.777-0.147,1.072-0.44l2.289-2.288v3.231c0,0.837,0.674,1.517,1.512,1.517c0.832,0,1.512-0.68,1.512-1.517v-3.231
		l2.283,2.284c0.295,0.297,0.686,0.444,1.072,0.444s0.775-0.147,1.068-0.444c0.59-0.589,0.59-1.546,0-2.135l-2.285-2.286h3.234
		c0.832,0,1.51-0.68,1.51-1.511C649.227,408.3,648.549,407.625,647.717,407.625z M640.833,411.018c-1.035,0-1.879-0.843-1.879-1.879
		s0.844-1.879,1.879-1.879s1.879,0.843,1.879,1.879S641.868,411.018,640.833,411.018z"/>
	<g>
		<g>
			<path fill="#FFFFFF" d="M659.625,394.445h-3.234l2.289-2.289c0.59-0.593,0.586-1.548-0.004-2.139
				c-0.59-0.589-1.549-0.589-2.139,0l-2.279,2.28v-3.224c0-0.835-0.676-1.51-1.514-1.51s-1.51,0.675-1.51,1.51v3.229l-2.287-2.287
				c-0.59-0.591-1.549-0.591-2.145,0c-0.584,0.591-0.584,1.55,0,2.143l2.289,2.287h-3.23c-0.838,0-1.514,0.675-1.514,1.51
				c0,0.837,0.676,1.515,1.514,1.515h3.229l-2.283,2.284c-0.59,0.593-0.59,1.548,0,2.139c0.295,0.295,0.684,0.443,1.07,0.443
				s0.773-0.148,1.068-0.443l2.289-2.288v3.235c0,0.835,0.672,1.515,1.51,1.515s1.514-0.68,1.514-1.515v-3.229l2.285,2.284
				c0.295,0.295,0.684,0.443,1.068,0.443c0.389,0,0.777-0.148,1.07-0.443c0.59-0.591,0.59-1.55,0-2.143l-2.283-2.282h3.227
				c0.836,0,1.514-0.678,1.514-1.515C661.139,395.12,660.461,394.445,659.625,394.445z M652.743,397.835
				c-1.035,0-1.875-0.843-1.875-1.879c0-1.035,0.84-1.875,1.875-1.875c1.039,0,1.879,0.84,1.879,1.875
				C654.622,396.993,653.782,397.835,652.743,397.835z"/>
		</g>
	</g>
	<path fill="#FFFFFF" d="M724.399,335.362"/>
	<path fill="#FFFFFF" d="M782.112,351.774c-0.076,0-0.141,0.023-0.211,0.023c0.244-1.04,0.389-2.119,0.389-3.241
		c0-7.287-5.539-13.194-12.367-13.194c-4.764,0-8.895,2.879-10.959,7.093c-0.555-0.102-1.113-0.185-1.697-0.185
		c-5.182,0-9.389,4.21-9.914,9.591c-0.26-0.027-0.51-0.087-0.777-0.087c-4.701,0-8.508,4.064-8.508,9.078s3.807,9.079,8.508,9.079
		c3.914,0,30.932,0,35.537,0c4.695,0,8.506-4.065,8.506-9.079S786.807,351.774,782.112,351.774z"/>
	<polygon fill="none" stroke="#FFFFFF" points="759.958,374.933 767.452,374.933 762.456,383.259 769.116,383.259 757.739,399.351 
		761.903,387.421 755.518,387.421 	"/>
	<path fill="#FFFFFF" d="M176.381,365.945c-0.067,0-0.126,0.02-0.189,0.02c0.221-0.87,0.351-1.772,0.351-2.71
		c0-6.093-4.943-11.036-11.034-11.036c-4.252,0-7.937,2.411-9.778,5.932c-0.496-0.082-0.996-0.153-1.516-0.153
		c-4.622,0-8.375,3.521-8.842,8.019c-0.232-0.02-0.457-0.07-0.695-0.07c-4.195,0-7.59,3.398-7.59,7.59
		c0,4.194,3.395,7.594,7.59,7.594c3.489,0,27.595,0,31.703,0c4.191,0,7.59-3.399,7.59-7.594
		C183.971,369.343,180.572,365.945,176.381,365.945z"/>
	<g>
		<path fill="#FFFFFF" d="M145.511,369.436c-5.786-1.03-9.853-6.052-9.849-11.736l0,0c0-0.691,0.055-1.398,0.187-2.098l0,0
			c1.028-5.782,6.052-9.847,11.737-9.847l0,0c0.682-0.006,1.389,0.056,2.096,0.186l0,0c5.778,1.033,9.844,6.054,9.844,11.732l0,0
			c0,0.695-0.063,1.395-0.187,2.098l0,0l-1.485-0.258l1.485,0.262c-1.028,5.786-6.056,9.845-11.737,9.845l0,0
			C146.909,369.62,146.209,369.558,145.511,369.436L145.511,369.436z M138.823,356.142c-0.094,0.512-0.136,1.037-0.136,1.558l0,0
			c0,4.231,3.033,7.997,7.343,8.759l0,0c0.53,0.089,1.056,0.137,1.572,0.137l0,0c4.232,0,7.997-3.029,8.759-7.35l0,0h0.002
			c0.092-0.532,0.138-1.056,0.138-1.572l0,0c0-4.226-3.033-7.986-7.365-8.755l0,0c-0.516-0.097-1.03-0.14-1.55-0.14l0,0
			C143.354,348.779,139.589,351.817,138.823,356.142L138.823,356.142z"/>
		<g>
			<path fill="#FFFFFF" d="M130.591,356.208l-5.595-0.996c-0.821-0.145-1.371-0.93-1.223-1.751l0,0
				c0.144-0.821,0.932-1.372,1.753-1.229l0,0l5.595,0.996c0.825,0.144,1.371,0.93,1.227,1.755l0,0
				c-0.132,0.732-0.77,1.246-1.491,1.246l0,0C130.769,356.23,130.68,356.222,130.591,356.208L130.591,356.208z"/>
			<path fill="#FFFFFF" d="M169.662,363.146l-5.597-0.99c-0.821-0.147-1.369-0.932-1.225-1.757l0,0
				c0.149-0.821,0.931-1.366,1.752-1.223l0,0l5.599,0.991c0.821,0.147,1.367,0.931,1.223,1.756l0,0
				c-0.128,0.732-0.768,1.247-1.489,1.247l0,0C169.839,363.17,169.75,363.162,169.662,363.146L169.662,363.146z"/>
		</g>
		<g>
			<path fill="#FFFFFF" d="M159.341,377.154l-3.255-4.657c-0.479-0.688-0.309-1.629,0.373-2.107l0,0
				c0.687-0.479,1.628-0.309,2.107,0.372l0,0l3.253,4.664c0.48,0.685,0.311,1.626-0.373,2.104l0,0
				c-0.264,0.186-0.565,0.272-0.862,0.272l0,0C160.105,377.802,159.634,377.576,159.341,377.154L159.341,377.154z"/>
			<path fill="#FFFFFF" d="M136.623,344.624l-3.257-4.661c-0.477-0.682-0.307-1.625,0.376-2.104l0,0
				c0.685-0.48,1.628-0.312,2.107,0.372l0,0l3.253,4.661c0.477,0.682,0.313,1.625-0.372,2.104l0,0
				c-0.264,0.186-0.567,0.273-0.867,0.273l0,0C137.387,345.269,136.917,345.042,136.623,344.624L136.623,344.624z"/>
		</g>
		<path fill="#FFFFFF" d="M150.306,342.445c-0.825-0.144-1.375-0.929-1.227-1.75l0,0l0.99-5.599c0.148-0.825,0.93-1.371,1.755-1.228
			l0,0c0.819,0.145,1.369,0.932,1.225,1.751l0,0l-0.992,5.601c-0.128,0.734-0.768,1.249-1.489,1.249l0,0
			C150.481,342.469,150.395,342.46,150.306,342.445L150.306,342.445z"/>
		<g>
			<path fill="#FFFFFF" d="M160.29,348.824c-0.479-0.686-0.309-1.625,0.376-2.102l0,0l4.657-3.255
				c0.688-0.48,1.631-0.313,2.107,0.374l0,0c0.479,0.686,0.309,1.623-0.372,2.105l0,0l-4.662,3.253
				c-0.264,0.186-0.565,0.272-0.862,0.272l0,0C161.058,349.472,160.587,349.248,160.29,348.824L160.29,348.824z"/>
			<path fill="#FFFFFF" d="M127.761,371.542c-0.479-0.688-0.309-1.627,0.373-2.105l0,0l4.659-3.253
				c0.687-0.479,1.628-0.31,2.107,0.376l0,0c0.479,0.682,0.309,1.627-0.374,2.105l0,0l-4.659,3.253
				c-0.264,0.186-0.565,0.273-0.863,0.273l0,0C128.525,372.191,128.057,371.964,127.761,371.542L127.761,371.542z"/>
		</g>
	</g>
	<path fill="#FFFFFF" d="M171.296,383.833c0.035-0.138-0.179-0.229-0.248-0.102c-2.316,4.111-5.432,3.879-6.666,6.888
		c-0.764,1.863,0.179,4.014,2.028,4.77c1.849,0.761,4.027-0.11,4.791-1.969C172.438,390.408,170.056,388.386,171.296,383.833"/>
	<path fill="#FFFFFF" d="M156.716,383.909c0.055-0.205-0.26-0.331-0.362-0.149c-3.385,6.014-7.942,5.671-9.75,10.078
		c-1.115,2.722,0.264,5.865,2.968,6.972c2.704,1.11,5.89-0.157,7.007-2.879C158.386,393.523,154.902,390.569,156.716,383.909"/>
	<path fill="#FFFFFF" d="M415.821,358.978c-0.078,0-0.145,0.02-0.217,0.02c0.252-0.985,0.398-2.009,0.398-3.072
		c0-6.896-5.602-12.497-12.502-12.497c-4.816,0-8.992,2.726-11.078,6.719c-0.562-0.095-1.129-0.173-1.717-0.173
		c-5.238,0-9.494,3.985-10.019,9.078c-0.265-0.02-0.519-0.074-0.788-0.074c-4.754,0-8.602,3.848-8.602,8.598
		s3.848,8.605,8.602,8.605c3.954,0,31.268,0,35.922,0c4.748,0,8.598-3.855,8.598-8.605S420.569,358.978,415.821,358.978z"/>
	<path fill="#FFFFFF" d="M408.454,379.753c0.043-0.157-0.203-0.256-0.279-0.114c-2.621,4.659-6.154,4.392-7.555,7.806
		c-0.865,2.107,0.203,4.542,2.297,5.404c2.094,0.858,4.568-0.122,5.43-2.233C409.745,387.201,407.045,384.909,408.454,379.753"/>
	<path fill="#FFFFFF" d="M395.022,387.371h-4.15l2.934-2.938c0.592-0.591,0.592-1.548,0-2.139c-0.59-0.591-1.545-0.591-2.137,0
		l-2.928,2.927v-4.14c0-0.835-0.68-1.513-1.514-1.513c-0.836,0-1.516,0.678-1.516,1.513v4.144l-2.93-2.931
		c-0.591-0.591-1.548-0.591-2.143,0c-0.591,0.591-0.591,1.548,0,2.139l2.938,2.938h-4.151c-0.839,0-1.513,0.674-1.513,1.513
		c0,0.835,0.674,1.512,1.513,1.512h4.139l-2.926,2.927c-0.591,0.591-0.591,1.552,0,2.143c0.296,0.291,0.682,0.438,1.069,0.438
		c0.389,0,0.774-0.146,1.069-0.438l2.934-2.938v4.155c0,0.835,0.68,1.513,1.516,1.513c0.834,0,1.514-0.678,1.514-1.513v-4.147
		l2.928,2.931c0.295,0.291,0.684,0.438,1.072,0.438c0.387,0,0.773-0.146,1.068-0.438c0.592-0.591,0.592-1.552,0-2.143l-2.926-2.927
		h4.139c0.836,0,1.512-0.677,1.512-1.512C396.534,388.044,395.858,387.371,395.022,387.371z M387.225,391.009
		c-1.174,0-2.127-0.957-2.127-2.126c0-1.174,0.953-2.131,2.127-2.131c1.172,0,2.125,0.957,2.125,2.131
		C389.35,390.052,388.397,391.009,387.225,391.009z"/>
	<path fill="#FFFFFF" d="M298.049,365.945c-0.066,0-0.126,0.02-0.188,0.02c0.219-0.87,0.349-1.772,0.349-2.71
		c0-6.093-4.941-11.032-11.034-11.032c-4.25,0-7.937,2.407-9.777,5.928c-0.494-0.082-0.994-0.149-1.515-0.149
		c-4.624,0-8.377,3.518-8.844,8.015c-0.23-0.02-0.455-0.07-0.695-0.07c-4.194,0-7.59,3.398-7.59,7.59
		c0,4.194,3.396,7.594,7.59,7.594c3.489,0,27.598,0,31.705,0c4.191,0,7.59-3.399,7.59-7.594
		C305.639,369.343,302.24,365.945,298.049,365.945z"/>
	<g>
		<path fill="#FFFFFF" d="M267.174,369.436c-5.782-1.03-9.849-6.052-9.844-11.732l0,0c0-0.695,0.055-1.398,0.182-2.096l0,0
			c1.029-5.788,6.054-9.849,11.732-9.849l0,0c0.687-0.004,1.395,0.056,2.102,0.186l0,0c5.782,1.029,9.844,6.054,9.844,11.729l0,0
			c0.004,0.691-0.06,1.391-0.183,2.098l0,0l-1.49-0.258l1.49,0.262c-1.028,5.782-6.053,9.845-11.732,9.845l0,0
			C268.58,369.62,267.881,369.558,267.174,369.436L267.174,369.436z M260.49,356.146c-0.094,0.512-0.14,1.033-0.14,1.558l0,0
			c0.004,4.228,3.036,7.993,7.348,8.755l0,0c0.53,0.089,1.06,0.137,1.576,0.137l0,0c4.229,0,7.987-3.029,8.753-7.34l0,0
			l-0.002-0.002c0.098-0.542,0.14-1.067,0.14-1.58l0,0c0-4.226-3.032-7.986-7.362-8.751l0,0c-0.517-0.097-1.037-0.138-1.559-0.138
			l0,0C265.018,348.785,261.252,351.817,260.49,356.146L260.49,356.146z"/>
		<g>
			<path fill="#FFFFFF" d="M252.26,356.21l-5.595-0.99c-0.821-0.148-1.372-0.932-1.224-1.757l0,0
				c0.145-0.821,0.931-1.37,1.752-1.223l0,0l5.596,0.99c0.821,0.147,1.371,0.932,1.223,1.757l0,0
				c-0.128,0.73-0.766,1.246-1.483,1.246l0,0C252.439,356.234,252.35,356.226,252.26,356.21L252.26,356.21z"/>
			<path fill="#FFFFFF" d="M291.324,363.146l-5.593-0.99c-0.821-0.147-1.372-0.932-1.224-1.757l0,0
				c0.145-0.821,0.931-1.366,1.753-1.223l0,0l5.593,0.991c0.826,0.147,1.372,0.931,1.229,1.756l0,0
				c-0.132,0.732-0.771,1.247-1.493,1.247l0,0C291.502,363.17,291.414,363.162,291.324,363.146L291.324,363.146z"/>
		</g>
		<g>
			<path fill="#FFFFFF" d="M281.006,377.154l-3.254-4.657c-0.475-0.688-0.311-1.629,0.377-2.107l0,0
				c0.683-0.479,1.627-0.309,2.106,0.372l0,0l3.25,4.664c0.479,0.685,0.313,1.626-0.373,2.104l0,0
				c-0.264,0.186-0.565,0.272-0.863,0.272l0,0C281.771,377.802,281.301,377.576,281.006,377.154L281.006,377.154z"/>
			<path fill="#FFFFFF" d="M258.287,344.624l-3.253-4.661c-0.478-0.686-0.309-1.625,0.377-2.104l0,0
				c0.686-0.48,1.628-0.312,2.106,0.372l0,0l3.252,4.661c0.478,0.686,0.31,1.625-0.376,2.104l0,0
				c-0.265,0.186-0.566,0.273-0.865,0.273l0,0C259.053,345.269,258.583,345.042,258.287,344.624L258.287,344.624z"/>
		</g>
		<path fill="#FFFFFF" d="M271.971,342.445c-0.824-0.144-1.369-0.929-1.226-1.75l0,0l0.989-5.599
			c0.148-0.825,0.931-1.371,1.755-1.228l0,0c0.82,0.145,1.371,0.932,1.227,1.751l0,0l-0.994,5.601
			c-0.128,0.734-0.768,1.249-1.486,1.249l0,0C272.148,342.469,272.06,342.46,271.971,342.445L271.971,342.445z"/>
		<g>
			<path fill="#FFFFFF" d="M281.959,348.824c-0.478-0.686-0.308-1.625,0.372-2.102l0,0l4.662-3.255
				c0.686-0.48,1.63-0.313,2.107,0.374l0,0c0.479,0.686,0.31,1.623-0.376,2.105l0,0l-4.658,3.253
				c-0.263,0.186-0.565,0.272-0.863,0.272l0,0C282.726,349.472,282.254,349.248,281.959,348.824L281.959,348.824z"/>
			<path fill="#FFFFFF" d="M249.429,371.549c-0.479-0.688-0.314-1.631,0.372-2.111l0,0l4.66-3.253
				c0.682-0.479,1.627-0.313,2.105,0.368l0,0c0.479,0.688,0.312,1.633-0.373,2.111l0,0l-4.659,3.257
				c-0.265,0.186-0.566,0.271-0.865,0.271l0,0C250.191,372.193,249.723,371.968,249.429,371.549L249.429,371.549z"/>
		</g>
	</g>
</g>
</svg>
