<?xml version="1.0" encoding="UTF-8"?>
<svg width="290px" height="189px" viewBox="0 0 290 189" version="1.1" xmlns="http://www.w3.org/2000/svg" xmlns:xlink="http://www.w3.org/1999/xlink">
    <!-- Generator: Sketch 59 (86127) - https://sketch.com -->
    <title>jamus mark</title>
    <desc>Created with Sketch.</desc>
    <g id="Welcome" stroke="none" stroke-width="1" fill="none" fill-rule="evenodd" stroke-linecap="round">
        <g id="Jamus" transform="translate(-66.000000, -167.000000)" stroke="#FFFFFF" stroke-width="5">
            <g id="jamus-mark" transform="translate(69.000000, 170.000000)">
                <path d="M102.884874,0 C111.220988,27.9246498 100.749176,90.2873911 95.6510565,106.986747 C90.5529375,123.686104 68.9203782,183 34.5425213,183 C8.43188449,183 -2.59107564,150.017039 0.509131896,125.69557 C1.4463773,118.342777 6.26892236,110.58208 14.9767671,102.41348" id="Path"></path>
                <path d="M138.91021,49 C135.048505,52.8718844 126.083832,91.7290095 129.945537,95.7391754 C133.807242,99.7493414 145.392359,56.1906424 154.219114,56.1906424 C163.045869,56.1906424 158.218737,78.1774143 160.425426,78.1774143 C162.632115,78.1774143 169.528018,53.1484475 173.389723,56.1906424 C177.251429,59.2328372 178.492691,72.3695877 182.906069,72.3695877 C187.319446,72.3695877 191.732824,56.1906424 195.870365,56.1906424 C200.007907,56.1906424 200.835415,64.2109743 205.248793,64.2109743 C209.662171,64.2109743 212.834286,52.8718844 216.144319,52.8718844 C219.454352,52.8718844 218.21309,61.1687794 225.522746,61.1687794 C232.832403,61.1687794 238.900797,49 242.624585,49 C246.348372,49 242.900421,64.2109743 259.312669,64.2109743 C266.189052,64.2109743 279.371667,55.1849298 284,52.8718844" id="Path-2"></path>
            </g>
        </g>
    </g>
</svg>